<mxfile host="65bd71144e">
    <diagram id="5rn39bVmAsRedquSbYf5" name="v1">
        <mxGraphModel dx="3736" dy="3064" grid="1" gridSize="10" guides="1" tooltips="1" connect="1" arrows="1" fold="1" page="1" pageScale="1" pageWidth="1200" pageHeight="1920" math="0" shadow="0">
            <root>
                <mxCell id="0"/>
                <mxCell id="1" parent="0"/>
                <mxCell id="EjeLVg5jgtUs2L7yKgqH-3" value="" style="strokeColor=inherit;fillColor=inherit;gradientColor=inherit;strokeWidth=1;shadow=0;dashed=0;align=center;html=1;shape=mxgraph.mockup.graphics.rrect;rSize=0;fontColor=#666666;" parent="1" vertex="1">
                    <mxGeometry x="2400" y="138.67" width="216" height="1451.33" as="geometry"/>
                </mxCell>
                <mxCell id="EjeLVg5jgtUs2L7yKgqH-2" value="" style="strokeColor=inherit;fillColor=inherit;gradientColor=inherit;strokeWidth=1;shadow=0;dashed=0;align=center;html=1;shape=mxgraph.mockup.graphics.rrect;rSize=0;fontColor=#666666;" parent="1" vertex="1">
                    <mxGeometry x="2616" y="138.67" width="216" height="1451.33" as="geometry"/>
                </mxCell>
                <mxCell id="EjeLVg5jgtUs2L7yKgqH-4" value="" style="strokeWidth=1;shadow=0;dashed=0;align=center;html=1;shape=mxgraph.mockup.graphics.rrect;rSize=0;strokeColor=#999999;" parent="1" vertex="1">
                    <mxGeometry x="240" width="2690" height="1590" as="geometry"/>
                </mxCell>
                <mxCell id="2" value="" style="strokeColor=inherit;fillColor=inherit;gradientColor=inherit;strokeWidth=1;shadow=0;dashed=0;align=center;html=1;shape=mxgraph.mockup.graphics.rrect;rSize=0;fontColor=#666666;" parent="EjeLVg5jgtUs2L7yKgqH-4" vertex="1">
                    <mxGeometry x="2164" y="138.67" width="216" height="1451.33" as="geometry"/>
                </mxCell>
                <mxCell id="EjeLVg5jgtUs2L7yKgqH-5" value="Task" style="strokeColor=inherit;fillColor=inherit;gradientColor=inherit;strokeWidth=1;shadow=0;dashed=0;align=center;html=1;shape=mxgraph.mockup.graphics.rrect;rSize=0;fontColor=#666666;" parent="EjeLVg5jgtUs2L7yKgqH-4" vertex="1">
                    <mxGeometry x="72" width="208" height="138.67" as="geometry"/>
                </mxCell>
                <mxCell id="EjeLVg5jgtUs2L7yKgqH-6" value="Start" style="strokeColor=inherit;fillColor=inherit;gradientColor=inherit;strokeWidth=1;shadow=0;dashed=0;align=center;html=1;shape=mxgraph.mockup.graphics.rrect;rSize=0;fontColor=#666666;" parent="EjeLVg5jgtUs2L7yKgqH-4" vertex="1">
                    <mxGeometry x="280" width="404" height="138.67" as="geometry"/>
                </mxCell>
                <mxCell id="EjeLVg5jgtUs2L7yKgqH-7" value="Effort" style="strokeColor=inherit;fillColor=inherit;gradientColor=inherit;strokeWidth=1;shadow=0;dashed=0;align=center;html=1;shape=mxgraph.mockup.graphics.rrect;rSize=0;fontColor=#666666;" parent="EjeLVg5jgtUs2L7yKgqH-4" vertex="1">
                    <mxGeometry x="683.9999999999998" width="179.99999999999994" height="138.66666666666663" as="geometry"/>
                </mxCell>
                <mxCell id="EjeLVg5jgtUs2L7yKgqH-8" value="week 1" style="strokeColor=inherit;fillColor=inherit;gradientColor=inherit;strokeWidth=1;shadow=0;dashed=0;align=center;html=1;shape=mxgraph.mockup.graphics.rrect;rSize=0;fontColor=#666666;" parent="EjeLVg5jgtUs2L7yKgqH-4" vertex="1">
                    <mxGeometry x="863.9999999999999" width="755.9999999999999" height="69.33333333333331" as="geometry"/>
                </mxCell>
                <mxCell id="EjeLVg5jgtUs2L7yKgqH-9" value="week2" style="strokeColor=inherit;fillColor=inherit;gradientColor=inherit;strokeWidth=1;shadow=0;dashed=0;align=center;html=1;shape=mxgraph.mockup.graphics.rrect;rSize=0;fontColor=#666666;" parent="EjeLVg5jgtUs2L7yKgqH-4" vertex="1">
                    <mxGeometry x="1620" width="760" height="69.33" as="geometry"/>
                </mxCell>
                <mxCell id="EjeLVg5jgtUs2L7yKgqH-10" value="M" style="strokeColor=inherit;fillColor=inherit;gradientColor=inherit;strokeWidth=1;shadow=0;dashed=0;align=center;html=1;shape=mxgraph.mockup.graphics.rrect;rSize=0;;fontColor=#666666;" parent="EjeLVg5jgtUs2L7yKgqH-4" vertex="1">
                    <mxGeometry x="863.9999999999999" y="69.33333333333331" width="107.99999999999999" height="69.33333333333331" as="geometry"/>
                </mxCell>
                <mxCell id="EjeLVg5jgtUs2L7yKgqH-11" value="T" style="strokeColor=inherit;fillColor=inherit;gradientColor=inherit;strokeWidth=1;shadow=0;dashed=0;align=center;html=1;shape=mxgraph.mockup.graphics.rrect;rSize=0;fontColor=#666666;" parent="EjeLVg5jgtUs2L7yKgqH-4" vertex="1">
                    <mxGeometry x="972" y="69.33333333333331" width="107.99999999999999" height="69.33333333333331" as="geometry"/>
                </mxCell>
                <mxCell id="EjeLVg5jgtUs2L7yKgqH-12" value="W" style="strokeColor=inherit;fillColor=inherit;gradientColor=inherit;strokeWidth=1;shadow=0;dashed=0;align=center;html=1;shape=mxgraph.mockup.graphics.rrect;rSize=0;fontColor=#666666;" parent="EjeLVg5jgtUs2L7yKgqH-4" vertex="1">
                    <mxGeometry x="1079.9999999999998" y="69.33333333333331" width="107.99999999999999" height="69.33333333333331" as="geometry"/>
                </mxCell>
                <mxCell id="EjeLVg5jgtUs2L7yKgqH-13" value="T" style="strokeColor=inherit;fillColor=inherit;gradientColor=inherit;strokeWidth=1;shadow=0;dashed=0;align=center;html=1;shape=mxgraph.mockup.graphics.rrect;rSize=0;fontColor=#666666;" parent="EjeLVg5jgtUs2L7yKgqH-4" vertex="1">
                    <mxGeometry x="1187.9999999999995" y="69.33333333333331" width="107.99999999999999" height="69.33333333333331" as="geometry"/>
                </mxCell>
                <mxCell id="EjeLVg5jgtUs2L7yKgqH-14" value="F" style="strokeColor=inherit;fillColor=inherit;gradientColor=inherit;strokeWidth=1;shadow=0;dashed=0;align=center;html=1;shape=mxgraph.mockup.graphics.rrect;rSize=0;fontColor=#666666;" parent="EjeLVg5jgtUs2L7yKgqH-4" vertex="1">
                    <mxGeometry x="1295.9999999999998" y="69.33333333333331" width="107.99999999999999" height="69.33333333333331" as="geometry"/>
                </mxCell>
                <mxCell id="EjeLVg5jgtUs2L7yKgqH-15" value="S" style="strokeColor=inherit;fillColor=inherit;gradientColor=inherit;strokeWidth=1;shadow=0;dashed=0;align=center;html=1;shape=mxgraph.mockup.graphics.rrect;rSize=0;fontColor=#666666;" parent="EjeLVg5jgtUs2L7yKgqH-4" vertex="1">
                    <mxGeometry x="1403.9999999999998" y="69.33333333333331" width="107.99999999999999" height="69.33333333333331" as="geometry"/>
                </mxCell>
                <mxCell id="EjeLVg5jgtUs2L7yKgqH-16" value="S" style="strokeColor=inherit;fillColor=inherit;gradientColor=inherit;strokeWidth=1;shadow=0;dashed=0;align=center;html=1;shape=mxgraph.mockup.graphics.rrect;rSize=0;fontColor=#666666;" parent="EjeLVg5jgtUs2L7yKgqH-4" vertex="1">
                    <mxGeometry x="1511.9999999999998" y="69.33333333333331" width="107.99999999999999" height="69.33333333333331" as="geometry"/>
                </mxCell>
                <mxCell id="EjeLVg5jgtUs2L7yKgqH-17" value="M" style="strokeColor=inherit;fillColor=inherit;gradientColor=inherit;strokeWidth=1;shadow=0;dashed=0;align=center;html=1;shape=mxgraph.mockup.graphics.rrect;rSize=0;fontColor=#666666;" parent="EjeLVg5jgtUs2L7yKgqH-4" vertex="1">
                    <mxGeometry x="1619.9999999999998" y="69.33333333333331" width="107.99999999999999" height="69.33333333333331" as="geometry"/>
                </mxCell>
                <mxCell id="EjeLVg5jgtUs2L7yKgqH-18" value="T" style="strokeColor=inherit;fillColor=inherit;gradientColor=inherit;strokeWidth=1;shadow=0;dashed=0;align=center;html=1;shape=mxgraph.mockup.graphics.rrect;rSize=0;fontColor=#666666;" parent="EjeLVg5jgtUs2L7yKgqH-4" vertex="1">
                    <mxGeometry x="1727.9999999999998" y="69.33333333333331" width="107.99999999999999" height="69.33333333333331" as="geometry"/>
                </mxCell>
                <mxCell id="EjeLVg5jgtUs2L7yKgqH-19" value="W" style="strokeColor=inherit;fillColor=inherit;gradientColor=inherit;strokeWidth=1;shadow=0;dashed=0;align=center;html=1;shape=mxgraph.mockup.graphics.rrect;rSize=0;fontColor=#666666;" parent="EjeLVg5jgtUs2L7yKgqH-4" vertex="1">
                    <mxGeometry x="1835.9999999999995" y="69.33333333333331" width="107.99999999999999" height="69.33333333333331" as="geometry"/>
                </mxCell>
                <mxCell id="EjeLVg5jgtUs2L7yKgqH-20" value="T" style="strokeColor=inherit;fillColor=inherit;gradientColor=inherit;strokeWidth=1;shadow=0;dashed=0;align=center;html=1;shape=mxgraph.mockup.graphics.rrect;rSize=0;fontColor=#666666;" parent="EjeLVg5jgtUs2L7yKgqH-4" vertex="1">
                    <mxGeometry x="1944" y="69.33333333333331" width="107.99999999999999" height="69.33333333333331" as="geometry"/>
                </mxCell>
                <mxCell id="EjeLVg5jgtUs2L7yKgqH-21" value="F" style="strokeColor=inherit;fillColor=inherit;gradientColor=inherit;strokeWidth=1;shadow=0;dashed=0;align=center;html=1;shape=mxgraph.mockup.graphics.rrect;rSize=0;fontColor=#666666;" parent="EjeLVg5jgtUs2L7yKgqH-4" vertex="1">
                    <mxGeometry x="2052" y="69.33333333333331" width="107.99999999999999" height="69.33333333333331" as="geometry"/>
                </mxCell>
                <mxCell id="EjeLVg5jgtUs2L7yKgqH-22" value="" style="strokeColor=inherit;fillColor=inherit;gradientColor=inherit;strokeWidth=1;shadow=0;dashed=0;align=center;html=1;shape=mxgraph.mockup.graphics.rrect;rSize=0;fontColor=#666666;" parent="EjeLVg5jgtUs2L7yKgqH-4" vertex="1">
                    <mxGeometry x="-70" y="138.67" width="934" height="1451.33" as="geometry"/>
                </mxCell>
                <mxCell id="EjeLVg5jgtUs2L7yKgqH-23" value="" style="strokeColor=inherit;fillColor=inherit;gradientColor=inherit;strokeWidth=1;shadow=0;dashed=0;align=center;html=1;shape=mxgraph.mockup.graphics.rrect;rSize=0;fontColor=#666666;" parent="EjeLVg5jgtUs2L7yKgqH-4" vertex="1">
                    <mxGeometry x="864" y="138.67" width="216" height="1451.33" as="geometry"/>
                </mxCell>
                <mxCell id="EjeLVg5jgtUs2L7yKgqH-24" value="" style="strokeColor=inherit;fillColor=inherit;gradientColor=inherit;strokeWidth=1;shadow=0;dashed=0;align=center;html=1;shape=mxgraph.mockup.graphics.rrect;rSize=0;fontColor=#666666;" parent="EjeLVg5jgtUs2L7yKgqH-4" vertex="1">
                    <mxGeometry x="1080" y="138.67" width="216" height="1451.33" as="geometry"/>
                </mxCell>
                <mxCell id="EjeLVg5jgtUs2L7yKgqH-25" value="" style="strokeColor=inherit;fillColor=inherit;gradientColor=inherit;strokeWidth=1;shadow=0;dashed=0;align=center;html=1;shape=mxgraph.mockup.graphics.rrect;rSize=0;fontColor=#666666;" parent="EjeLVg5jgtUs2L7yKgqH-4" vertex="1">
                    <mxGeometry x="1296" y="138.67" width="216" height="1451.33" as="geometry"/>
                </mxCell>
                <mxCell id="EjeLVg5jgtUs2L7yKgqH-26" value="" style="strokeColor=inherit;fillColor=inherit;gradientColor=inherit;strokeWidth=1;shadow=0;dashed=0;align=center;html=1;shape=mxgraph.mockup.graphics.rrect;rSize=0;fontColor=#666666;" parent="EjeLVg5jgtUs2L7yKgqH-4" vertex="1">
                    <mxGeometry x="1512" y="138.67" width="216" height="1451.33" as="geometry"/>
                </mxCell>
                <mxCell id="EjeLVg5jgtUs2L7yKgqH-27" value="" style="strokeColor=inherit;fillColor=inherit;gradientColor=inherit;strokeWidth=1;shadow=0;dashed=0;align=center;html=1;shape=mxgraph.mockup.graphics.rrect;rSize=0;fontColor=#666666;" parent="EjeLVg5jgtUs2L7yKgqH-4" vertex="1">
                    <mxGeometry x="1728" y="138.67" width="216" height="1451.33" as="geometry"/>
                </mxCell>
                <mxCell id="EjeLVg5jgtUs2L7yKgqH-28" value="" style="strokeColor=inherit;fillColor=inherit;gradientColor=inherit;strokeWidth=1;shadow=0;dashed=0;align=center;html=1;shape=mxgraph.mockup.graphics.rrect;rSize=0;fontColor=#666666;" parent="EjeLVg5jgtUs2L7yKgqH-4" vertex="1">
                    <mxGeometry x="1944" y="138.67" width="216" height="1451.33" as="geometry"/>
                </mxCell>
                <mxCell id="EjeLVg5jgtUs2L7yKgqH-29" value="&lt;div style=&quot;background-color: rgb(31, 31, 31); font-family: Consolas, &amp;quot;Courier New&amp;quot;, monospace; font-size: 14px; line-height: 19px;&quot;&gt;&lt;font color=&quot;#569cd6&quot;&gt;&lt;b&gt;v1&lt;/b&gt;&lt;/font&gt;&lt;/div&gt;" style="strokeWidth=1;shadow=0;dashed=0;align=center;html=1;shape=mxgraph.mockup.graphics.anchor;fontColor=#666666;" parent="EjeLVg5jgtUs2L7yKgqH-4" vertex="1">
                    <mxGeometry x="103.99999999999997" y="138.66666666666663" width="143.99999999999994" height="69.33333333333331" as="geometry"/>
                </mxCell>
                <mxCell id="EjeLVg5jgtUs2L7yKgqH-30" value="20//10//2014 8:00 AM" style="strokeWidth=1;shadow=0;dashed=0;align=center;html=1;shape=mxgraph.mockup.graphics.anchor;fontColor=#666666;" parent="EjeLVg5jgtUs2L7yKgqH-4" vertex="1">
                    <mxGeometry x="247.99999999999997" y="138.66666666666663" width="467.9999999999999" height="69.33333333333331" as="geometry"/>
                </mxCell>
                <mxCell id="EjeLVg5jgtUs2L7yKgqH-31" value="&lt;div style=&quot;color: rgb(204, 204, 204); background-color: rgb(31, 31, 31); font-family: Consolas, &amp;quot;Courier New&amp;quot;, monospace; font-size: 14px; line-height: 19px;&quot;&gt;412&lt;/div&gt;" style="strokeWidth=1;shadow=0;dashed=0;align=center;html=1;shape=mxgraph.mockup.graphics.anchor;fontColor=#666666;" parent="EjeLVg5jgtUs2L7yKgqH-4" vertex="1">
                    <mxGeometry x="683.9999999999998" y="138.66666666666663" width="179.99999999999994" height="69.33333333333331" as="geometry"/>
                </mxCell>
                <mxCell id="EjeLVg5jgtUs2L7yKgqH-32" value="&lt;div style=&quot;color: rgb(204, 204, 204); background-color: rgb(31, 31, 31); font-family: Consolas, &amp;quot;Courier New&amp;quot;, monospace; font-size: 14px; line-height: 19px;&quot;&gt;&lt;span style=&quot;color: rgb(86, 156, 214); font-weight: bold;&quot;&gt;Stakeholder Requirements&amp;nbsp;&lt;/span&gt;&lt;/div&gt;&lt;div style=&quot;color: rgb(204, 204, 204); background-color: rgb(31, 31, 31); font-family: Consolas, &amp;quot;Courier New&amp;quot;, monospace; font-size: 14px; line-height: 19px;&quot;&gt;&lt;span style=&quot;color: rgb(86, 156, 214); font-weight: bold;&quot;&gt;Definition Process&lt;/span&gt;&lt;/div&gt;" style="strokeWidth=1;shadow=0;dashed=0;align=center;html=1;shape=mxgraph.mockup.graphics.anchor;fontColor=#666666;" parent="EjeLVg5jgtUs2L7yKgqH-4" vertex="1">
                    <mxGeometry x="103.99999999999997" y="208" width="143.99999999999994" height="69.33333333333331" as="geometry"/>
                </mxCell>
                <mxCell id="EjeLVg5jgtUs2L7yKgqH-33" value="20//10//2014 8:00 AM" style="strokeWidth=1;shadow=0;dashed=0;align=center;html=1;shape=mxgraph.mockup.graphics.anchor;fontColor=#666666;" parent="EjeLVg5jgtUs2L7yKgqH-4" vertex="1">
                    <mxGeometry x="247.99999999999997" y="208" width="467.9999999999999" height="69.33333333333331" as="geometry"/>
                </mxCell>
                <mxCell id="EjeLVg5jgtUs2L7yKgqH-34" value="&lt;div style=&quot;color: rgb(204, 204, 204); background-color: rgb(31, 31, 31); font-family: Consolas, &amp;quot;Courier New&amp;quot;, monospace; font-size: 14px; line-height: 19px;&quot;&gt;8&lt;/div&gt;" style="strokeWidth=1;shadow=0;dashed=0;align=center;html=1;shape=mxgraph.mockup.graphics.anchor;fontColor=#666666;" parent="EjeLVg5jgtUs2L7yKgqH-4" vertex="1">
                    <mxGeometry x="683.9999999999998" y="208" width="179.99999999999994" height="69.33333333333331" as="geometry"/>
                </mxCell>
                <mxCell id="EjeLVg5jgtUs2L7yKgqH-35" value="&lt;div style=&quot;color: rgb(204, 204, 204); background-color: rgb(31, 31, 31); font-family: Consolas, &amp;quot;Courier New&amp;quot;, monospace; font-size: 14px; line-height: 19px;&quot;&gt;&lt;span style=&quot;color: #569cd6;font-weight: bold;&quot;&gt;Software Implementation&amp;nbsp;&lt;/span&gt;&lt;/div&gt;&lt;div style=&quot;color: rgb(204, 204, 204); background-color: rgb(31, 31, 31); font-family: Consolas, &amp;quot;Courier New&amp;quot;, monospace; font-size: 14px; line-height: 19px;&quot;&gt;&lt;span style=&quot;color: #569cd6;font-weight: bold;&quot;&gt;Processes&lt;/span&gt;&lt;/div&gt;" style="strokeWidth=1;shadow=0;dashed=0;align=center;html=1;shape=mxgraph.mockup.graphics.anchor;fontColor=#666666;" parent="EjeLVg5jgtUs2L7yKgqH-4" vertex="1">
                    <mxGeometry x="103.99999999999997" y="277.33333333333326" width="143.99999999999994" height="69.33333333333331" as="geometry"/>
                </mxCell>
                <mxCell id="EjeLVg5jgtUs2L7yKgqH-36" value="20//10//2014 8:00 AM" style="strokeWidth=1;shadow=0;dashed=0;align=center;html=1;shape=mxgraph.mockup.graphics.anchor;fontColor=#666666;" parent="EjeLVg5jgtUs2L7yKgqH-4" vertex="1">
                    <mxGeometry x="247.99999999999997" y="277.33333333333326" width="467.9999999999999" height="69.33333333333331" as="geometry"/>
                </mxCell>
                <mxCell id="EjeLVg5jgtUs2L7yKgqH-37" value="&lt;div style=&quot;color: rgb(204, 204, 204); background-color: rgb(31, 31, 31); font-family: Consolas, &amp;quot;Courier New&amp;quot;, monospace; font-size: 14px; line-height: 19px;&quot;&gt;310&lt;/div&gt;" style="strokeWidth=1;shadow=0;dashed=0;align=center;html=1;shape=mxgraph.mockup.graphics.anchor;fontColor=#666666;" parent="EjeLVg5jgtUs2L7yKgqH-4" vertex="1">
                    <mxGeometry x="683.9999999999998" y="277.33333333333326" width="179.99999999999994" height="69.33333333333331" as="geometry"/>
                </mxCell>
                <mxCell id="EjeLVg5jgtUs2L7yKgqH-38" value="&lt;div style=&quot;color: rgb(204, 204, 204); background-color: rgb(31, 31, 31); font-family: Consolas, &amp;quot;Courier New&amp;quot;, monospace; font-size: 14px; line-height: 19px;&quot;&gt;Software Requirements&amp;nbsp;&lt;/div&gt;&lt;div style=&quot;color: rgb(204, 204, 204); background-color: rgb(31, 31, 31); font-family: Consolas, &amp;quot;Courier New&amp;quot;, monospace; font-size: 14px; line-height: 19px;&quot;&gt;Analysis Process&lt;/div&gt;" style="strokeWidth=1;shadow=0;dashed=0;align=center;html=1;shape=mxgraph.mockup.graphics.anchor;fontColor=#666666;" parent="EjeLVg5jgtUs2L7yKgqH-4" vertex="1">
                    <mxGeometry x="103.99999999999997" y="346.6666666666666" width="143.99999999999994" height="69.33333333333331" as="geometry"/>
                </mxCell>
                <mxCell id="EjeLVg5jgtUs2L7yKgqH-39" value="20//10//2014 8:00 AM" style="strokeWidth=1;shadow=0;dashed=0;align=center;html=1;shape=mxgraph.mockup.graphics.anchor;fontColor=#666666;" parent="EjeLVg5jgtUs2L7yKgqH-4" vertex="1">
                    <mxGeometry x="247.99999999999997" y="346.6666666666666" width="467.9999999999999" height="69.33333333333331" as="geometry"/>
                </mxCell>
                <mxCell id="EjeLVg5jgtUs2L7yKgqH-40" value="&lt;div style=&quot;color: rgb(204, 204, 204); background-color: rgb(31, 31, 31); font-family: Consolas, &amp;quot;Courier New&amp;quot;, monospace; font-size: 14px; line-height: 19px;&quot;&gt;60&lt;/div&gt;" style="strokeWidth=1;shadow=0;dashed=0;align=center;html=1;shape=mxgraph.mockup.graphics.anchor;fontColor=#666666;" parent="EjeLVg5jgtUs2L7yKgqH-4" vertex="1">
                    <mxGeometry x="683.9999999999998" y="346.6666666666666" width="179.99999999999994" height="69.33333333333331" as="geometry"/>
                </mxCell>
                <mxCell id="EjeLVg5jgtUs2L7yKgqH-41" value="" style="strokeWidth=1;shadow=0;dashed=0;align=center;html=1;shape=mxgraph.mockup.graphics.rrect;rSize=0;strokeColor=#001DBC;fillColor=#0050ef;fontColor=#ffffff;" parent="EjeLVg5jgtUs2L7yKgqH-4" vertex="1">
                    <mxGeometry x="890" y="294.66" width="510" height="34.67" as="geometry"/>
                </mxCell>
                <mxCell id="EjeLVg5jgtUs2L7yKgqH-42" value="" style="strokeWidth=1;shadow=0;dashed=0;align=center;html=1;shape=mxgraph.mockup.graphics.rrect;rSize=0;strokeColor=#001DBC;fillColor=#0050ef;fontColor=#ffffff;gradientDirection=south;gradientColor=default;" parent="EjeLVg5jgtUs2L7yKgqH-4" vertex="1">
                    <mxGeometry x="890" y="364" width="190" height="34.67" as="geometry"/>
                </mxCell>
                <mxCell id="EjeLVg5jgtUs2L7yKgqH-43" value="#" style="strokeColor=inherit;fillColor=inherit;gradientColor=inherit;strokeWidth=1;shadow=0;dashed=0;align=center;html=1;shape=mxgraph.mockup.graphics.rrect;rSize=0;fontColor=#666666;" parent="EjeLVg5jgtUs2L7yKgqH-4" vertex="1">
                    <mxGeometry x="-70" width="142" height="138.67" as="geometry"/>
                </mxCell>
                <mxCell id="EjeLVg5jgtUs2L7yKgqH-44" value="3" style="strokeWidth=1;shadow=0;dashed=0;align=center;html=1;shape=mxgraph.mockup.graphics.anchor;fontColor=#666666;" parent="EjeLVg5jgtUs2L7yKgqH-4" vertex="1">
                    <mxGeometry x="-70" y="560.0033333333332" width="71.99999999999997" height="69.33333333333331" as="geometry"/>
                </mxCell>
                <mxCell id="EjeLVg5jgtUs2L7yKgqH-45" value="2.1" style="strokeWidth=1;shadow=0;dashed=0;align=center;html=1;shape=mxgraph.mockup.graphics.anchor;fontColor=#666666;" parent="EjeLVg5jgtUs2L7yKgqH-4" vertex="1">
                    <mxGeometry y="346.66999999999996" width="71.99999999999997" height="69.33333333333331" as="geometry"/>
                </mxCell>
                <mxCell id="EjeLVg5jgtUs2L7yKgqH-46" value="2.2" style="strokeWidth=1;shadow=0;dashed=0;align=center;html=1;shape=mxgraph.mockup.graphics.anchor;fontColor=#666666;" parent="EjeLVg5jgtUs2L7yKgqH-4" vertex="1">
                    <mxGeometry y="415.99999999999994" width="71.99999999999997" height="69.33333333333331" as="geometry"/>
                </mxCell>
                <mxCell id="EjeLVg5jgtUs2L7yKgqH-47" value="2.3" style="strokeWidth=1;shadow=0;dashed=0;align=center;html=1;shape=mxgraph.mockup.graphics.anchor;fontColor=#666666;" parent="EjeLVg5jgtUs2L7yKgqH-4" vertex="1">
                    <mxGeometry y="489.99999999999994" width="71.99999999999997" height="69.33333333333331" as="geometry"/>
                </mxCell>
                <mxCell id="EjeLVg5jgtUs2L7yKgqH-48" value="3.1" style="strokeWidth=1;shadow=0;dashed=0;align=center;html=1;shape=mxgraph.mockup.graphics.anchor;fontColor=#666666;" parent="EjeLVg5jgtUs2L7yKgqH-4" vertex="1">
                    <mxGeometry y="629.3333333333333" width="71.99999999999997" height="69.33333333333331" as="geometry"/>
                </mxCell>
                <mxCell id="EjeLVg5jgtUs2L7yKgqH-49" value="3.2" style="strokeWidth=1;shadow=0;dashed=0;align=center;html=1;shape=mxgraph.mockup.graphics.anchor;fontColor=#666666;" parent="EjeLVg5jgtUs2L7yKgqH-4" vertex="1">
                    <mxGeometry y="698.6633333333333" width="71.99999999999997" height="69.33333333333331" as="geometry"/>
                </mxCell>
                <mxCell id="EjeLVg5jgtUs2L7yKgqH-50" value="5" style="strokeWidth=1;shadow=0;dashed=0;align=center;html=1;shape=mxgraph.mockup.graphics.anchor;fontColor=#666666;" parent="EjeLVg5jgtUs2L7yKgqH-4" vertex="1">
                    <mxGeometry x="-70" y="839.3266666666665" width="71.99999999999997" height="69.33333333333331" as="geometry"/>
                </mxCell>
                <mxCell id="EjeLVg5jgtUs2L7yKgqH-51" value="4" style="strokeWidth=1;shadow=0;dashed=0;align=center;html=1;shape=mxgraph.mockup.graphics.anchor;fontColor=#666666;" parent="EjeLVg5jgtUs2L7yKgqH-4" vertex="1">
                    <mxGeometry x="-70" y="769.9966666666666" width="71.99999999999997" height="69.33333333333331" as="geometry"/>
                </mxCell>
                <mxCell id="EjeLVg5jgtUs2L7yKgqH-52" value="1" style="strokeWidth=1;shadow=0;dashed=0;align=center;html=1;shape=mxgraph.mockup.graphics.anchor;fontColor=#666666;" parent="EjeLVg5jgtUs2L7yKgqH-4" vertex="1">
                    <mxGeometry x="-70" y="207.9966666666666" width="71.99999999999997" height="69.33333333333331" as="geometry"/>
                </mxCell>
                <mxCell id="EjeLVg5jgtUs2L7yKgqH-53" value="&lt;div style=&quot;color: rgb(204, 204, 204); background-color: rgb(31, 31, 31); font-family: Consolas, &amp;quot;Courier New&amp;quot;, monospace; font-size: 14px; line-height: 19px;&quot;&gt;Software Detailed&amp;nbsp;&lt;/div&gt;&lt;div style=&quot;color: rgb(204, 204, 204); background-color: rgb(31, 31, 31); font-family: Consolas, &amp;quot;Courier New&amp;quot;, monospace; font-size: 14px; line-height: 19px;&quot;&gt;Design Process&lt;/div&gt;" style="strokeWidth=1;shadow=0;dashed=0;align=center;html=1;shape=mxgraph.mockup.graphics.anchor;fontColor=#666666;" parent="EjeLVg5jgtUs2L7yKgqH-4" vertex="1">
                    <mxGeometry x="104" y="420.66999999999996" width="143.99999999999994" height="69.33333333333331" as="geometry"/>
                </mxCell>
                <mxCell id="EjeLVg5jgtUs2L7yKgqH-54" value="&lt;div style=&quot;color: rgb(204, 204, 204); background-color: rgb(31, 31, 31); font-family: Consolas, &amp;quot;Courier New&amp;quot;, monospace; font-size: 14px; line-height: 19px;&quot;&gt;Software Construction&amp;nbsp;&lt;/div&gt;&lt;div style=&quot;color: rgb(204, 204, 204); background-color: rgb(31, 31, 31); font-family: Consolas, &amp;quot;Courier New&amp;quot;, monospace; font-size: 14px; line-height: 19px;&quot;&gt;Process&lt;/div&gt;" style="strokeWidth=1;shadow=0;dashed=0;align=center;html=1;shape=mxgraph.mockup.graphics.anchor;fontColor=#666666;" parent="EjeLVg5jgtUs2L7yKgqH-4" vertex="1">
                    <mxGeometry x="104" y="490.0033333333332" width="143.99999999999994" height="69.33333333333331" as="geometry"/>
                </mxCell>
                <mxCell id="EjeLVg5jgtUs2L7yKgqH-55" value="&lt;div style=&quot;color: rgb(204, 204, 204); background-color: rgb(31, 31, 31); font-family: Consolas, &amp;quot;Courier New&amp;quot;, monospace; font-size: 14px; line-height: 19px;&quot;&gt;&lt;span style=&quot;color: #569cd6;font-weight: bold;&quot;&gt;Software Support&amp;nbsp;&lt;/span&gt;&lt;/div&gt;&lt;div style=&quot;color: rgb(204, 204, 204); background-color: rgb(31, 31, 31); font-family: Consolas, &amp;quot;Courier New&amp;quot;, monospace; font-size: 14px; line-height: 19px;&quot;&gt;&lt;span style=&quot;color: #569cd6;font-weight: bold;&quot;&gt;Processes&lt;/span&gt;&lt;/div&gt;" style="strokeWidth=1;shadow=0;dashed=0;align=center;html=1;shape=mxgraph.mockup.graphics.anchor;fontColor=#666666;" parent="EjeLVg5jgtUs2L7yKgqH-4" vertex="1">
                    <mxGeometry x="104" y="559.3366666666666" width="143.99999999999994" height="69.33333333333331" as="geometry"/>
                </mxCell>
                <mxCell id="EjeLVg5jgtUs2L7yKgqH-56" value="&lt;div style=&quot;color: rgb(204, 204, 204); background-color: rgb(31, 31, 31); font-family: Consolas, &amp;quot;Courier New&amp;quot;, monospace; font-size: 14px; line-height: 19px;&quot;&gt;Software Review&amp;nbsp;&lt;/div&gt;&lt;div style=&quot;color: rgb(204, 204, 204); background-color: rgb(31, 31, 31); font-family: Consolas, &amp;quot;Courier New&amp;quot;, monospace; font-size: 14px; line-height: 19px;&quot;&gt;Process&lt;/div&gt;" style="strokeWidth=1;shadow=0;dashed=0;align=center;html=1;shape=mxgraph.mockup.graphics.anchor;fontColor=#666666;" parent="EjeLVg5jgtUs2L7yKgqH-4" vertex="1">
                    <mxGeometry x="104" y="698.0033333333333" width="143.99999999999994" height="69.33333333333331" as="geometry"/>
                </mxCell>
                <mxCell id="EjeLVg5jgtUs2L7yKgqH-57" value="&lt;div style=&quot;color: rgb(204, 204, 204); background-color: rgb(31, 31, 31); font-family: Consolas, &amp;quot;Courier New&amp;quot;, monospace; font-size: 14px; line-height: 19px;&quot;&gt;&lt;span style=&quot;color: #569cd6;font-weight: bold;&quot;&gt;Software Validation&amp;nbsp;&lt;/span&gt;&lt;/div&gt;&lt;div style=&quot;color: rgb(204, 204, 204); background-color: rgb(31, 31, 31); font-family: Consolas, &amp;quot;Courier New&amp;quot;, monospace; font-size: 14px; line-height: 19px;&quot;&gt;&lt;span style=&quot;color: #569cd6;font-weight: bold;&quot;&gt;Process&lt;/span&gt;&lt;/div&gt;" style="strokeWidth=1;shadow=0;dashed=0;align=center;html=1;shape=mxgraph.mockup.graphics.anchor;fontColor=#666666;" parent="EjeLVg5jgtUs2L7yKgqH-4" vertex="1">
                    <mxGeometry x="104" y="767.3366666666666" width="143.99999999999994" height="69.33333333333331" as="geometry"/>
                </mxCell>
                <mxCell id="EjeLVg5jgtUs2L7yKgqH-58" value="&lt;div style=&quot;color: rgb(204, 204, 204); background-color: rgb(31, 31, 31); font-family: Consolas, &amp;quot;Courier New&amp;quot;, monospace; font-size: 14px; line-height: 19px;&quot;&gt;Software Documentation&amp;nbsp;&lt;/div&gt;&lt;div style=&quot;color: rgb(204, 204, 204); background-color: rgb(31, 31, 31); font-family: Consolas, &amp;quot;Courier New&amp;quot;, monospace; font-size: 14px; line-height: 19px;&quot;&gt;Management Process&lt;/div&gt;" style="strokeWidth=1;shadow=0;dashed=0;align=center;html=1;shape=mxgraph.mockup.graphics.anchor;fontColor=#666666;" parent="EjeLVg5jgtUs2L7yKgqH-4" vertex="1">
                    <mxGeometry x="104" y="628.6700000000001" width="143.99999999999994" height="69.33333333333331" as="geometry"/>
                </mxCell>
                <mxCell id="EjeLVg5jgtUs2L7yKgqH-59" value="&lt;div style=&quot;color: rgb(204, 204, 204); background-color: rgb(31, 31, 31); font-family: Consolas, &amp;quot;Courier New&amp;quot;, monospace; font-size: 14px; line-height: 19px;&quot;&gt;&lt;span style=&quot;color: #569cd6;font-weight: bold;&quot;&gt;Human Resource&amp;nbsp;&lt;/span&gt;&lt;/div&gt;&lt;div style=&quot;color: rgb(204, 204, 204); background-color: rgb(31, 31, 31); font-family: Consolas, &amp;quot;Courier New&amp;quot;, monospace; font-size: 14px; line-height: 19px;&quot;&gt;&lt;span style=&quot;color: #569cd6;font-weight: bold;&quot;&gt;Management Process&lt;/span&gt;&lt;/div&gt;" style="strokeWidth=1;shadow=0;dashed=0;align=center;html=1;shape=mxgraph.mockup.graphics.anchor;fontColor=#666666;" parent="EjeLVg5jgtUs2L7yKgqH-4" vertex="1">
                    <mxGeometry x="104" y="839.33" width="143.99999999999994" height="69.33333333333331" as="geometry"/>
                </mxCell>
                <mxCell id="EjeLVg5jgtUs2L7yKgqH-60" value="20//10//2014 8:00 AM" style="strokeWidth=1;shadow=0;dashed=0;align=center;html=1;shape=mxgraph.mockup.graphics.anchor;fontColor=#666666;" parent="EjeLVg5jgtUs2L7yKgqH-4" vertex="1">
                    <mxGeometry x="248" y="415.9966666666666" width="467.9999999999999" height="69.33333333333331" as="geometry"/>
                </mxCell>
                <mxCell id="EjeLVg5jgtUs2L7yKgqH-61" value="20//10//2014 8:00 AM" style="strokeWidth=1;shadow=0;dashed=0;align=center;html=1;shape=mxgraph.mockup.graphics.anchor;fontColor=#666666;" parent="EjeLVg5jgtUs2L7yKgqH-4" vertex="1">
                    <mxGeometry x="248" y="485.33" width="467.9999999999999" height="69.33333333333331" as="geometry"/>
                </mxCell>
                <mxCell id="EjeLVg5jgtUs2L7yKgqH-62" value="20//10//2014 8:00 AM" style="strokeWidth=1;shadow=0;dashed=0;align=center;html=1;shape=mxgraph.mockup.graphics.anchor;fontColor=#666666;" parent="EjeLVg5jgtUs2L7yKgqH-4" vertex="1">
                    <mxGeometry x="248" y="554.6633333333332" width="467.9999999999999" height="69.33333333333331" as="geometry"/>
                </mxCell>
                <mxCell id="EjeLVg5jgtUs2L7yKgqH-63" value="20//10//2014 8:00 AM" style="strokeWidth=1;shadow=0;dashed=0;align=center;html=1;shape=mxgraph.mockup.graphics.anchor;fontColor=#666666;" parent="EjeLVg5jgtUs2L7yKgqH-4" vertex="1">
                    <mxGeometry x="248" y="623.9966666666666" width="467.9999999999999" height="69.33333333333331" as="geometry"/>
                </mxCell>
                <mxCell id="EjeLVg5jgtUs2L7yKgqH-64" value="20//10//2014 8:00 AM" style="strokeWidth=1;shadow=0;dashed=0;align=center;html=1;shape=mxgraph.mockup.graphics.anchor;fontColor=#666666;" parent="EjeLVg5jgtUs2L7yKgqH-4" vertex="1">
                    <mxGeometry x="248" y="698.0066666666667" width="467.9999999999999" height="69.33333333333331" as="geometry"/>
                </mxCell>
                <mxCell id="EjeLVg5jgtUs2L7yKgqH-65" value="20//10//2014 8:00 AM" style="strokeWidth=1;shadow=0;dashed=0;align=center;html=1;shape=mxgraph.mockup.graphics.anchor;fontColor=#666666;" parent="EjeLVg5jgtUs2L7yKgqH-4" vertex="1">
                    <mxGeometry x="248" y="767.3399999999999" width="467.9999999999999" height="69.33333333333331" as="geometry"/>
                </mxCell>
                <mxCell id="EjeLVg5jgtUs2L7yKgqH-66" value="20//10//2014 8:00 AM" style="strokeWidth=1;shadow=0;dashed=0;align=center;html=1;shape=mxgraph.mockup.graphics.anchor;fontColor=#666666;" parent="EjeLVg5jgtUs2L7yKgqH-4" vertex="1">
                    <mxGeometry x="248" y="836.6733333333332" width="467.9999999999999" height="69.33333333333331" as="geometry"/>
                </mxCell>
                <mxCell id="EjeLVg5jgtUs2L7yKgqH-67" value="&lt;div style=&quot;color: rgb(204, 204, 204); background-color: rgb(31, 31, 31); font-family: Consolas, &amp;quot;Courier New&amp;quot;, monospace; font-size: 14px; line-height: 19px;&quot;&gt;&lt;div style=&quot;line-height: 19px;&quot;&gt;10&lt;/div&gt;&lt;/div&gt;" style="strokeWidth=1;shadow=0;dashed=0;align=center;html=1;shape=mxgraph.mockup.graphics.anchor;fontColor=#666666;" parent="EjeLVg5jgtUs2L7yKgqH-4" vertex="1">
                    <mxGeometry x="683.9999999999998" y="416.0066666666666" width="179.99999999999994" height="69.33333333333331" as="geometry"/>
                </mxCell>
                <mxCell id="EjeLVg5jgtUs2L7yKgqH-68" value="&lt;div style=&quot;color: rgb(204, 204, 204); background-color: rgb(31, 31, 31); font-family: Consolas, &amp;quot;Courier New&amp;quot;, monospace; font-size: 14px; line-height: 19px;&quot;&gt;&lt;div style=&quot;line-height: 19px;&quot;&gt;240&lt;/div&gt;&lt;/div&gt;" style="strokeWidth=1;shadow=0;dashed=0;align=center;html=1;shape=mxgraph.mockup.graphics.anchor;fontColor=#666666;" parent="EjeLVg5jgtUs2L7yKgqH-4" vertex="1">
                    <mxGeometry x="683.9999999999998" y="485.34" width="179.99999999999994" height="69.33333333333331" as="geometry"/>
                </mxCell>
                <mxCell id="EjeLVg5jgtUs2L7yKgqH-69" value="&lt;div style=&quot;color: rgb(204, 204, 204); background-color: rgb(31, 31, 31); font-family: Consolas, &amp;quot;Courier New&amp;quot;, monospace; font-size: 14px; line-height: 19px;&quot;&gt;34&lt;/div&gt;" style="strokeWidth=1;shadow=0;dashed=0;align=center;html=1;shape=mxgraph.mockup.graphics.anchor;fontColor=#666666;" parent="EjeLVg5jgtUs2L7yKgqH-4" vertex="1">
                    <mxGeometry x="683.9999999999998" y="554.6733333333332" width="179.99999999999994" height="69.33333333333331" as="geometry"/>
                </mxCell>
                <mxCell id="EjeLVg5jgtUs2L7yKgqH-70" value="&lt;div style=&quot;color: rgb(204, 204, 204); background-color: rgb(31, 31, 31); font-family: Consolas, &amp;quot;Courier New&amp;quot;, monospace; font-size: 14px; line-height: 19px;&quot;&gt;&lt;div style=&quot;line-height: 19px;&quot;&gt;30&lt;/div&gt;&lt;/div&gt;" style="strokeWidth=1;shadow=0;dashed=0;align=center;html=1;shape=mxgraph.mockup.graphics.anchor;fontColor=#666666;" parent="EjeLVg5jgtUs2L7yKgqH-4" vertex="1">
                    <mxGeometry x="683.9999999999998" y="624.0066666666665" width="179.99999999999994" height="69.33333333333331" as="geometry"/>
                </mxCell>
                <mxCell id="EjeLVg5jgtUs2L7yKgqH-71" value="&lt;div style=&quot;color: rgb(204, 204, 204); background-color: rgb(31, 31, 31); font-family: Consolas, &amp;quot;Courier New&amp;quot;, monospace; font-size: 14px; line-height: 19px;&quot;&gt;&lt;div style=&quot;line-height: 19px;&quot;&gt;4&lt;/div&gt;&lt;/div&gt;" style="strokeWidth=1;shadow=0;dashed=0;align=center;html=1;shape=mxgraph.mockup.graphics.anchor;fontColor=#666666;" parent="EjeLVg5jgtUs2L7yKgqH-4" vertex="1">
                    <mxGeometry x="683.9999999999998" y="698.0066666666667" width="179.99999999999994" height="69.33333333333331" as="geometry"/>
                </mxCell>
                <mxCell id="EjeLVg5jgtUs2L7yKgqH-72" value="&lt;div style=&quot;color: rgb(204, 204, 204); background-color: rgb(31, 31, 31); font-family: Consolas, &amp;quot;Courier New&amp;quot;, monospace; font-size: 14px; line-height: 19px;&quot;&gt;&lt;div style=&quot;line-height: 19px;&quot;&gt;40&lt;/div&gt;&lt;/div&gt;" style="strokeWidth=1;shadow=0;dashed=0;align=center;html=1;shape=mxgraph.mockup.graphics.anchor;fontColor=#666666;" parent="EjeLVg5jgtUs2L7yKgqH-4" vertex="1">
                    <mxGeometry x="683.9999999999998" y="767.3399999999999" width="179.99999999999994" height="69.33333333333331" as="geometry"/>
                </mxCell>
                <mxCell id="EjeLVg5jgtUs2L7yKgqH-73" value="&lt;div style=&quot;color: rgb(204, 204, 204); background-color: rgb(31, 31, 31); font-family: Consolas, &amp;quot;Courier New&amp;quot;, monospace; font-size: 14px; line-height: 19px;&quot;&gt;&lt;div style=&quot;line-height: 19px;&quot;&gt;20&lt;/div&gt;&lt;/div&gt;" style="strokeWidth=1;shadow=0;dashed=0;align=center;html=1;shape=mxgraph.mockup.graphics.anchor;fontColor=#666666;" parent="EjeLVg5jgtUs2L7yKgqH-4" vertex="1">
                    <mxGeometry x="683.9999999999998" y="836.6733333333332" width="179.99999999999994" height="69.33333333333331" as="geometry"/>
                </mxCell>
                <mxCell id="EjeLVg5jgtUs2L7yKgqH-74" value="" style="strokeWidth=1;shadow=0;dashed=0;align=center;html=1;shape=mxgraph.mockup.graphics.rrect;rSize=0;strokeColor=#6F0000;fillColor=#a20025;fontColor=#ffffff;" parent="EjeLVg5jgtUs2L7yKgqH-4" vertex="1">
                    <mxGeometry x="864" y="156" width="1826" height="34.67" as="geometry"/>
                </mxCell>
                <mxCell id="EjeLVg5jgtUs2L7yKgqH-75" value="" style="strokeWidth=1;shadow=0;dashed=0;align=center;html=1;shape=mxgraph.mockup.graphics.rrect;rSize=0;strokeColor=#001DBC;fillColor=#0050ef;fontColor=#ffffff;" parent="EjeLVg5jgtUs2L7yKgqH-4" vertex="1">
                    <mxGeometry x="1378" y="294.65999999999997" width="26" height="34.67" as="geometry"/>
                </mxCell>
                <mxCell id="EjeLVg5jgtUs2L7yKgqH-76" value="" style="strokeWidth=1;shadow=0;dashed=0;align=center;html=1;shape=mxgraph.mockup.graphics.rrect;rSize=0;strokeColor=none;fillColor=#aaddff;" parent="EjeLVg5jgtUs2L7yKgqH-4" vertex="1">
                    <mxGeometry x="864" y="225.33" width="26" height="34.67" as="geometry"/>
                </mxCell>
                <mxCell id="EjeLVg5jgtUs2L7yKgqH-77" value="" style="strokeWidth=1;shadow=0;dashed=0;align=center;html=1;shape=mxgraph.mockup.graphics.rrect;rSize=0;strokeColor=#001DBC;fillColor=#0050ef;fontColor=#ffffff;" parent="EjeLVg5jgtUs2L7yKgqH-4" vertex="1">
                    <mxGeometry x="1620" y="294.66" width="440" height="34.67" as="geometry"/>
                </mxCell>
                <mxCell id="EjeLVg5jgtUs2L7yKgqH-78" value="" style="strokeWidth=1;shadow=0;dashed=0;align=center;html=1;shape=mxgraph.mockup.graphics.rrect;rSize=0;strokeColor=#001DBC;fillColor=#0050ef;fontColor=#ffffff;" parent="EjeLVg5jgtUs2L7yKgqH-4" vertex="1">
                    <mxGeometry x="2052" y="294.66" width="54" height="34.67" as="geometry"/>
                </mxCell>
                <mxCell id="EjeLVg5jgtUs2L7yKgqH-79" value="" style="strokeWidth=1;shadow=0;dashed=0;align=center;html=1;shape=mxgraph.mockup.graphics.rrect;rSize=0;strokeColor=#001DBC;fillColor=#0050ef;fontColor=#ffffff;" parent="EjeLVg5jgtUs2L7yKgqH-4" vertex="1">
                    <mxGeometry x="2106" y="294.67" width="44" height="34.67" as="geometry"/>
                </mxCell>
                <mxCell id="EjeLVg5jgtUs2L7yKgqH-80" value="" style="strokeWidth=1;shadow=0;dashed=0;align=center;html=1;shape=mxgraph.mockup.graphics.rrect;rSize=0;strokeColor=#001DBC;fillColor=#0050ef;fontColor=#ffffff;gradientDirection=south;gradientColor=default;" parent="EjeLVg5jgtUs2L7yKgqH-4" vertex="1">
                    <mxGeometry x="1094" y="433.33" width="26" height="34.67" as="geometry"/>
                </mxCell>
                <mxCell id="EjeLVg5jgtUs2L7yKgqH-81" value="" style="strokeWidth=1;shadow=0;dashed=0;align=center;html=1;shape=mxgraph.mockup.graphics.rrect;rSize=0;strokeColor=#001DBC;fillColor=#0050ef;fontColor=#ffffff;gradientDirection=south;gradientColor=default;" parent="EjeLVg5jgtUs2L7yKgqH-4" vertex="1">
                    <mxGeometry x="1080" y="364" width="14" height="34.67" as="geometry"/>
                </mxCell>
                <mxCell id="EjeLVg5jgtUs2L7yKgqH-82" value="" style="strokeWidth=1;shadow=0;dashed=0;align=center;html=1;shape=mxgraph.mockup.graphics.rrect;rSize=0;strokeColor=#001DBC;fillColor=#0050ef;fontColor=#ffffff;gradientDirection=south;gradientColor=default;" parent="EjeLVg5jgtUs2L7yKgqH-4" vertex="1">
                    <mxGeometry x="1120" y="433.33000000000004" width="6" height="34.67" as="geometry"/>
                </mxCell>
                <mxCell id="EjeLVg5jgtUs2L7yKgqH-83" value="" style="strokeWidth=1;shadow=0;dashed=0;align=center;html=1;shape=mxgraph.mockup.graphics.rrect;rSize=0;strokeColor=#001DBC;fillColor=#0050ef;fontColor=#ffffff;gradientDirection=south;gradientColor=default;" parent="EjeLVg5jgtUs2L7yKgqH-4" vertex="1">
                    <mxGeometry x="1126" y="502.67" width="164" height="34.67" as="geometry"/>
                </mxCell>
                <mxCell id="EjeLVg5jgtUs2L7yKgqH-84" value="" style="strokeWidth=1;shadow=0;dashed=0;align=center;html=1;shape=mxgraph.mockup.graphics.rrect;rSize=0;strokeColor=#001DBC;fillColor=#0050ef;fontColor=#ffffff;gradientDirection=south;gradientColor=default;" parent="EjeLVg5jgtUs2L7yKgqH-4" vertex="1">
                    <mxGeometry x="1270" y="502.66" width="130" height="34.67" as="geometry"/>
                </mxCell>
                <mxCell id="EjeLVg5jgtUs2L7yKgqH-85" value="" style="strokeWidth=1;shadow=0;dashed=0;align=center;html=1;shape=mxgraph.mockup.graphics.rrect;rSize=0;strokeColor=#001DBC;fillColor=#0050ef;fontColor=#ffffff;gradientColor=default;gradientDirection=south;" parent="EjeLVg5jgtUs2L7yKgqH-4" vertex="1">
                    <mxGeometry x="1378" y="502.66999999999996" width="26" height="34.67" as="geometry"/>
                </mxCell>
                <mxCell id="EjeLVg5jgtUs2L7yKgqH-86" value="" style="strokeWidth=1;shadow=0;dashed=0;align=center;html=1;shape=mxgraph.mockup.graphics.rrect;rSize=0;strokeColor=#001DBC;fillColor=#0050ef;fontColor=#ffffff;gradientDirection=south;gradientColor=default;" parent="EjeLVg5jgtUs2L7yKgqH-4" vertex="1">
                    <mxGeometry x="1620" y="502.67" width="530" height="34.67" as="geometry"/>
                </mxCell>
                <mxCell id="EjeLVg5jgtUs2L7yKgqH-87" value="" style="strokeWidth=1;shadow=0;dashed=0;align=center;html=1;shape=mxgraph.mockup.graphics.rrect;rSize=0;strokeColor=#3700CC;fillColor=#6a00ff;fontColor=#ffffff;" parent="EjeLVg5jgtUs2L7yKgqH-4" vertex="1">
                    <mxGeometry x="2380" y="572" width="54" height="34.67" as="geometry"/>
                </mxCell>
                <mxCell id="EjeLVg5jgtUs2L7yKgqH-88" value="" style="strokeWidth=1;shadow=0;dashed=0;align=center;html=1;shape=mxgraph.mockup.graphics.rrect;rSize=0;strokeColor=#3700CC;fillColor=#6a00ff;fontColor=#ffffff;" parent="EjeLVg5jgtUs2L7yKgqH-4" vertex="1">
                    <mxGeometry x="2434" y="571.99" width="56" height="34.67" as="geometry"/>
                </mxCell>
                <mxCell id="EjeLVg5jgtUs2L7yKgqH-89" value="" style="strokeWidth=1;shadow=0;dashed=0;align=center;html=1;shape=mxgraph.mockup.graphics.rrect;rSize=0;strokeColor=#3700CC;fillColor=#6a00ff;fontColor=#ffffff;" parent="EjeLVg5jgtUs2L7yKgqH-4" vertex="1">
                    <mxGeometry x="2150" y="571.99" width="10" height="34.67" as="geometry"/>
                </mxCell>
                <mxCell id="EjeLVg5jgtUs2L7yKgqH-90" value="" style="strokeWidth=1;shadow=0;dashed=0;align=center;html=1;shape=mxgraph.mockup.graphics.rrect;rSize=0;strokeColor=#3700CC;fillColor=#6a00ff;fontColor=#ffffff;gradientColor=default;" parent="EjeLVg5jgtUs2L7yKgqH-4" vertex="1">
                    <mxGeometry x="2150" y="641.33" width="10" height="34.67" as="geometry"/>
                </mxCell>
                <mxCell id="EjeLVg5jgtUs2L7yKgqH-91" value="" style="strokeWidth=1;shadow=0;dashed=0;align=center;html=1;shape=mxgraph.mockup.graphics.rrect;rSize=0;strokeColor=#3700CC;fillColor=#6a00ff;fontColor=#ffffff;gradientColor=default;" parent="EjeLVg5jgtUs2L7yKgqH-4" vertex="1">
                    <mxGeometry x="2380" y="641.33" width="54" height="34.67" as="geometry"/>
                </mxCell>
                <mxCell id="EjeLVg5jgtUs2L7yKgqH-92" value="" style="strokeWidth=1;shadow=0;dashed=0;align=center;html=1;shape=mxgraph.mockup.graphics.rrect;rSize=0;strokeColor=#3700CC;fillColor=#6a00ff;fontColor=#ffffff;gradientColor=default;" parent="EjeLVg5jgtUs2L7yKgqH-4" vertex="1">
                    <mxGeometry x="2434" y="641.34" width="46" height="34.67" as="geometry"/>
                </mxCell>
                <mxCell id="EjeLVg5jgtUs2L7yKgqH-93" value="" style="strokeWidth=1;shadow=0;dashed=0;align=center;html=1;shape=mxgraph.mockup.graphics.rrect;rSize=0;strokeColor=#3700CC;fillColor=#6a00ff;fontColor=#ffffff;gradientColor=default;" parent="EjeLVg5jgtUs2L7yKgqH-4" vertex="1">
                    <mxGeometry x="2480" y="716" width="10" height="34.67" as="geometry"/>
                </mxCell>
                <mxCell id="EjeLVg5jgtUs2L7yKgqH-94" value="" style="strokeWidth=1;shadow=0;dashed=0;align=center;html=1;shape=mxgraph.mockup.graphics.rrect;rSize=0;strokeColor=none;fillColor=#aaddff;" parent="EjeLVg5jgtUs2L7yKgqH-4" vertex="1">
                    <mxGeometry x="2490" y="787.33" width="26" height="34.67" as="geometry"/>
                </mxCell>
                <mxCell id="EjeLVg5jgtUs2L7yKgqH-95" value="" style="strokeWidth=1;shadow=0;dashed=0;align=center;html=1;shape=mxgraph.mockup.graphics.rrect;rSize=0;strokeColor=none;fillColor=#aaddff;" parent="EjeLVg5jgtUs2L7yKgqH-4" vertex="1">
                    <mxGeometry x="2516" y="787.33" width="54" height="34.67" as="geometry"/>
                </mxCell>
                <mxCell id="EjeLVg5jgtUs2L7yKgqH-96" value="" style="strokeWidth=1;shadow=0;dashed=0;align=center;html=1;shape=mxgraph.mockup.graphics.rrect;rSize=0;strokeColor=none;fillColor=#aaddff;" parent="EjeLVg5jgtUs2L7yKgqH-4" vertex="1">
                    <mxGeometry x="2570" y="787.33" width="54" height="34.67" as="geometry"/>
                </mxCell>
                <mxCell id="EjeLVg5jgtUs2L7yKgqH-97" value="" style="strokeWidth=1;shadow=0;dashed=0;align=center;html=1;shape=mxgraph.mockup.graphics.rrect;rSize=0;strokeColor=none;fillColor=#aaddff;" parent="EjeLVg5jgtUs2L7yKgqH-4" vertex="1">
                    <mxGeometry x="2624" y="854" width="26" height="34.67" as="geometry"/>
                </mxCell>
                <mxCell id="EjeLVg5jgtUs2L7yKgqH-98" value="" style="strokeWidth=1;shadow=0;dashed=0;align=center;html=1;shape=mxgraph.mockup.graphics.rrect;rSize=0;strokeColor=none;fillColor=#aaddff;" parent="EjeLVg5jgtUs2L7yKgqH-4" vertex="1">
                    <mxGeometry x="2650" y="854" width="6" height="34.67" as="geometry"/>
                </mxCell>
                <mxCell id="EjeLVg5jgtUs2L7yKgqH-99" value="" style="strokeWidth=1;shadow=0;dashed=0;align=center;html=1;shape=mxgraph.mockup.graphics.rrect;rSize=0;strokeColor=none;fillColor=#aaddff;" parent="EjeLVg5jgtUs2L7yKgqH-4" vertex="1">
                    <mxGeometry x="2656" y="854" width="26" height="34.67" as="geometry"/>
                </mxCell>
                <mxCell id="EjeLVg5jgtUs2L7yKgqH-100" value="" style="strokeWidth=1;shadow=0;dashed=0;align=center;html=1;shape=mxgraph.mockup.graphics.rrect;rSize=0;strokeColor=none;fillColor=#aaddff;" parent="EjeLVg5jgtUs2L7yKgqH-4" vertex="1">
                    <mxGeometry x="2682" y="854" width="6" height="34.67" as="geometry"/>
                </mxCell>
                <mxCell id="EjeLVg5jgtUs2L7yKgqH-1" value="" style="strokeColor=inherit;fillColor=inherit;gradientColor=inherit;strokeWidth=1;shadow=0;dashed=0;align=center;html=1;shape=mxgraph.mockup.graphics.rrect;rSize=0;fontColor=#666666;" parent="1" vertex="1">
                    <mxGeometry x="2832" y="138.67" width="216" height="1451.33" as="geometry"/>
                </mxCell>
                <mxCell id="EjeLVg5jgtUs2L7yKgqH-101" value="2" style="strokeWidth=1;shadow=0;dashed=0;align=center;html=1;shape=mxgraph.mockup.graphics.anchor;fontColor=#666666;" parent="1" vertex="1">
                    <mxGeometry x="170" y="277.33" width="71.99999999999997" height="69.33333333333331" as="geometry"/>
                </mxCell>
                <mxCell id="EjeLVg5jgtUs2L7yKgqH-102" value="S" style="strokeColor=inherit;fillColor=inherit;gradientColor=inherit;strokeWidth=1;shadow=0;dashed=0;align=center;html=1;shape=mxgraph.mockup.graphics.rrect;rSize=0;fontColor=#666666;" parent="1" vertex="1">
                    <mxGeometry x="2400" y="69.33333333333331" width="107.99999999999999" height="69.33333333333331" as="geometry"/>
                </mxCell>
                <mxCell id="EjeLVg5jgtUs2L7yKgqH-103" value="S" style="strokeColor=inherit;fillColor=inherit;gradientColor=inherit;strokeWidth=1;shadow=0;dashed=0;align=center;html=1;shape=mxgraph.mockup.graphics.rrect;rSize=0;fontColor=#666666;" parent="1" vertex="1">
                    <mxGeometry x="2508" y="69.33333333333331" width="107.99999999999999" height="69.33333333333331" as="geometry"/>
                </mxCell>
                <mxCell id="EjeLVg5jgtUs2L7yKgqH-104" value="week3" style="strokeColor=inherit;fillColor=inherit;gradientColor=inherit;strokeWidth=1;shadow=0;dashed=0;align=center;html=1;shape=mxgraph.mockup.graphics.rrect;rSize=0;fontColor=#666666;" parent="1" vertex="1">
                    <mxGeometry x="2616" width="754" height="69.33" as="geometry"/>
                </mxCell>
                <mxCell id="EjeLVg5jgtUs2L7yKgqH-105" value="M" style="strokeColor=inherit;fillColor=inherit;gradientColor=inherit;strokeWidth=1;shadow=0;dashed=0;align=center;html=1;shape=mxgraph.mockup.graphics.rrect;rSize=0;fontColor=#666666;" parent="1" vertex="1">
                    <mxGeometry x="2616" y="69.33333333333331" width="107.99999999999999" height="69.33333333333331" as="geometry"/>
                </mxCell>
                <mxCell id="EjeLVg5jgtUs2L7yKgqH-106" value="T" style="strokeColor=inherit;fillColor=inherit;gradientColor=inherit;strokeWidth=1;shadow=0;dashed=0;align=center;html=1;shape=mxgraph.mockup.graphics.rrect;rSize=0;fontColor=#666666;" parent="1" vertex="1">
                    <mxGeometry x="2724" y="69.33333333333331" width="107.99999999999999" height="69.33333333333331" as="geometry"/>
                </mxCell>
                <mxCell id="EjeLVg5jgtUs2L7yKgqH-107" value="W" style="strokeColor=inherit;fillColor=inherit;gradientColor=inherit;strokeWidth=1;shadow=0;dashed=0;align=center;html=1;shape=mxgraph.mockup.graphics.rrect;rSize=0;fontColor=#666666;" parent="1" vertex="1">
                    <mxGeometry x="2831.9999999999995" y="69.33333333333331" width="107.99999999999999" height="69.33333333333331" as="geometry"/>
                </mxCell>
                <mxCell id="EjeLVg5jgtUs2L7yKgqH-108" value="T" style="strokeColor=inherit;fillColor=inherit;gradientColor=inherit;strokeWidth=1;shadow=0;dashed=0;align=center;html=1;shape=mxgraph.mockup.graphics.rrect;rSize=0;fontColor=#666666;" parent="1" vertex="1">
                    <mxGeometry x="2940" y="69.33333333333331" width="107.99999999999999" height="69.33333333333331" as="geometry"/>
                </mxCell>
                <mxCell id="EjeLVg5jgtUs2L7yKgqH-109" value="F" style="strokeColor=inherit;fillColor=inherit;gradientColor=inherit;strokeWidth=1;shadow=0;dashed=0;align=center;html=1;shape=mxgraph.mockup.graphics.rrect;rSize=0;fontColor=#666666;" parent="1" vertex="1">
                    <mxGeometry x="3048" y="69.33333333333331" width="107.99999999999999" height="69.33333333333331" as="geometry"/>
                </mxCell>
                <mxCell id="EjeLVg5jgtUs2L7yKgqH-110" value="S" style="strokeColor=inherit;fillColor=inherit;gradientColor=inherit;strokeWidth=1;shadow=0;dashed=0;align=center;html=1;shape=mxgraph.mockup.graphics.rrect;rSize=0;fontColor=#666666;" parent="1" vertex="1">
                    <mxGeometry x="3156" y="69.33333333333331" width="107.99999999999999" height="69.33333333333331" as="geometry"/>
                </mxCell>
                <mxCell id="EjeLVg5jgtUs2L7yKgqH-111" value="S" style="strokeColor=inherit;fillColor=inherit;gradientColor=inherit;strokeWidth=1;shadow=0;dashed=0;align=center;html=1;shape=mxgraph.mockup.graphics.rrect;rSize=0;fontColor=#666666;" parent="1" vertex="1">
                    <mxGeometry x="3264" y="69.33" width="106" height="69.33" as="geometry"/>
                </mxCell>
                <mxCell id="EjeLVg5jgtUs2L7yKgqH-112" value="" style="strokeColor=inherit;fillColor=inherit;gradientColor=inherit;strokeWidth=1;shadow=0;dashed=0;align=center;html=1;shape=mxgraph.mockup.graphics.rrect;rSize=0;fontColor=#666666;" parent="1" vertex="1">
                    <mxGeometry x="3048" y="138.67" width="216" height="1451.33" as="geometry"/>
                </mxCell>
                <mxCell id="EjeLVg5jgtUs2L7yKgqH-113" value="" style="strokeColor=inherit;fillColor=inherit;gradientColor=inherit;strokeWidth=1;shadow=0;dashed=0;align=center;html=1;shape=mxgraph.mockup.graphics.rrect;rSize=0;fontColor=#666666;" parent="1" vertex="1">
                    <mxGeometry x="3264" y="138.67" width="106" height="1451.33" as="geometry"/>
                </mxCell>
            </root>
        </mxGraphModel>
    </diagram>
    <diagram id="0gPLAC7oAY1-_yhaDGfm" name="v2">
        <mxGraphModel dx="2669" dy="4109" grid="1" gridSize="10" guides="1" tooltips="1" connect="1" arrows="1" fold="1" page="1" pageScale="1" pageWidth="1200" pageHeight="1920" math="0" shadow="0">
            <root>
                <mxCell id="0"/>
                <mxCell id="1" parent="0"/>
                <mxCell id="jfYItdnhFlpZmDzV3BWn-864" value="" style="strokeColor=inherit;fillColor=inherit;gradientColor=inherit;strokeWidth=1;shadow=0;dashed=0;align=center;html=1;shape=mxgraph.mockup.graphics.rrect;rSize=0;fontColor=#666666;" parent="1" vertex="1">
                    <mxGeometry x="4340" y="138.67" width="216" height="1911.33" as="geometry"/>
                </mxCell>
                <mxCell id="jfYItdnhFlpZmDzV3BWn-865" value="" style="strokeColor=inherit;fillColor=inherit;gradientColor=inherit;strokeWidth=1;shadow=0;dashed=0;align=center;html=1;shape=mxgraph.mockup.graphics.rrect;rSize=0;fontColor=#666666;" parent="1" vertex="1">
                    <mxGeometry x="4124" y="138.67" width="216" height="911.33" as="geometry"/>
                </mxCell>
                <mxCell id="jfYItdnhFlpZmDzV3BWn-866" value="" style="strokeColor=inherit;fillColor=inherit;gradientColor=inherit;strokeWidth=1;shadow=0;dashed=0;align=center;html=1;shape=mxgraph.mockup.graphics.rrect;rSize=0;fontColor=#666666;" parent="1" vertex="1">
                    <mxGeometry x="4125" y="139" width="216" height="1911" as="geometry"/>
                </mxCell>
                <mxCell id="jfYItdnhFlpZmDzV3BWn-862" value="" style="strokeColor=inherit;fillColor=inherit;gradientColor=inherit;strokeWidth=1;shadow=0;dashed=0;align=center;html=1;shape=mxgraph.mockup.graphics.rrect;rSize=0;fontColor=#666666;" parent="1" vertex="1">
                    <mxGeometry x="3910" y="139" width="216" height="1911" as="geometry"/>
                </mxCell>
                <mxCell id="jfYItdnhFlpZmDzV3BWn-839" value="" style="strokeColor=inherit;fillColor=inherit;gradientColor=inherit;strokeWidth=1;shadow=0;dashed=0;align=center;html=1;shape=mxgraph.mockup.graphics.rrect;rSize=0;fontColor=#666666;" parent="1" vertex="1">
                    <mxGeometry x="3696" y="138.34" width="216" height="1911.66" as="geometry"/>
                </mxCell>
                <mxCell id="jfYItdnhFlpZmDzV3BWn-840" value="" style="strokeColor=inherit;fillColor=inherit;gradientColor=inherit;strokeWidth=1;shadow=0;dashed=0;align=center;html=1;shape=mxgraph.mockup.graphics.rrect;rSize=0;fontColor=#666666;" parent="1" vertex="1">
                    <mxGeometry x="3480" y="138.33" width="216" height="1911.67" as="geometry"/>
                </mxCell>
                <mxCell id="710" value="" style="strokeColor=inherit;fillColor=inherit;gradientColor=inherit;strokeWidth=1;shadow=0;dashed=0;align=center;html=1;shape=mxgraph.mockup.graphics.rrect;rSize=0;fontColor=#666666;" parent="1" vertex="1">
                    <mxGeometry x="3264" y="138.67" width="106" height="911.33" as="geometry"/>
                </mxCell>
                <mxCell id="jfYItdnhFlpZmDzV3BWn-841" value="" style="strokeColor=inherit;fillColor=inherit;gradientColor=inherit;strokeWidth=1;shadow=0;dashed=0;align=center;html=1;shape=mxgraph.mockup.graphics.rrect;rSize=0;fontColor=#666666;" parent="1" vertex="1">
                    <mxGeometry x="3264" y="139" width="216" height="1911" as="geometry"/>
                </mxCell>
                <mxCell id="709" value="" style="strokeColor=inherit;fillColor=inherit;gradientColor=inherit;strokeWidth=1;shadow=0;dashed=0;align=center;html=1;shape=mxgraph.mockup.graphics.rrect;rSize=0;fontColor=#666666;" parent="1" vertex="1">
                    <mxGeometry x="3048" y="138.67" width="216" height="1911.33" as="geometry"/>
                </mxCell>
                <mxCell id="706" value="" style="strokeColor=inherit;fillColor=inherit;gradientColor=inherit;strokeWidth=1;shadow=0;dashed=0;align=center;html=1;shape=mxgraph.mockup.graphics.rrect;rSize=0;fontColor=#666666;" parent="1" vertex="1">
                    <mxGeometry x="2832" y="138.67" width="216" height="1911.33" as="geometry"/>
                </mxCell>
                <mxCell id="705" value="" style="strokeColor=inherit;fillColor=inherit;gradientColor=inherit;strokeWidth=1;shadow=0;dashed=0;align=center;html=1;shape=mxgraph.mockup.graphics.rrect;rSize=0;fontColor=#666666;" parent="1" vertex="1">
                    <mxGeometry x="2616" y="138.67" width="216" height="911.33" as="geometry"/>
                </mxCell>
                <mxCell id="687" value="" style="strokeColor=inherit;fillColor=inherit;gradientColor=inherit;strokeWidth=1;shadow=0;dashed=0;align=center;html=1;shape=mxgraph.mockup.graphics.rrect;rSize=0;fontColor=#666666;" parent="1" vertex="1">
                    <mxGeometry x="2400" y="138.67" width="216" height="911.33" as="geometry"/>
                </mxCell>
                <mxCell id="568" value="2" style="strokeWidth=1;shadow=0;dashed=0;align=center;html=1;shape=mxgraph.mockup.graphics.anchor;fontColor=#666666;" parent="1" vertex="1">
                    <mxGeometry x="170" y="277.33" width="71.99999999999997" height="69.33333333333331" as="geometry"/>
                </mxCell>
                <mxCell id="538" value="" style="strokeWidth=1;shadow=0;dashed=0;align=center;html=1;shape=mxgraph.mockup.graphics.rrect;rSize=0;strokeColor=#999999;" parent="1" vertex="1">
                    <mxGeometry x="240" width="4220" height="2050" as="geometry"/>
                </mxCell>
                <mxCell id="jfYItdnhFlpZmDzV3BWn-957" value="" style="strokeColor=inherit;fillColor=inherit;gradientColor=inherit;strokeWidth=1;shadow=0;dashed=0;align=center;html=1;shape=mxgraph.mockup.graphics.rrect;rSize=0;fontColor=#666666;" parent="538" vertex="1">
                    <mxGeometry x="3886" y="139" width="216" height="1911" as="geometry"/>
                </mxCell>
                <mxCell id="jfYItdnhFlpZmDzV3BWn-956" value="" style="strokeColor=inherit;fillColor=inherit;gradientColor=inherit;strokeWidth=1;shadow=0;dashed=0;align=center;html=1;shape=mxgraph.mockup.graphics.rrect;rSize=0;fontColor=#666666;" parent="538" vertex="1">
                    <mxGeometry x="3670" y="139" width="216" height="1911" as="geometry"/>
                </mxCell>
                <mxCell id="jfYItdnhFlpZmDzV3BWn-955" value="" style="strokeColor=inherit;fillColor=inherit;gradientColor=inherit;strokeWidth=1;shadow=0;dashed=0;align=center;html=1;shape=mxgraph.mockup.graphics.rrect;rSize=0;fontColor=#666666;" parent="538" vertex="1">
                    <mxGeometry x="3457" y="138.67" width="216" height="1911" as="geometry"/>
                </mxCell>
                <mxCell id="jfYItdnhFlpZmDzV3BWn-954" value="" style="strokeColor=inherit;fillColor=inherit;gradientColor=inherit;strokeWidth=1;shadow=0;dashed=0;align=center;html=1;shape=mxgraph.mockup.graphics.rrect;rSize=0;fontColor=#666666;" parent="538" vertex="1">
                    <mxGeometry x="3241" y="139" width="216" height="1911" as="geometry"/>
                </mxCell>
                <mxCell id="jfYItdnhFlpZmDzV3BWn-953" value="" style="strokeColor=inherit;fillColor=inherit;gradientColor=inherit;strokeWidth=1;shadow=0;dashed=0;align=center;html=1;shape=mxgraph.mockup.graphics.rrect;rSize=0;fontColor=#666666;" parent="538" vertex="1">
                    <mxGeometry x="3025" y="138.67" width="216" height="1911" as="geometry"/>
                </mxCell>
                <mxCell id="jfYItdnhFlpZmDzV3BWn-952" value="" style="strokeColor=inherit;fillColor=inherit;gradientColor=inherit;strokeWidth=1;shadow=0;dashed=0;align=center;html=1;shape=mxgraph.mockup.graphics.rrect;rSize=0;fontColor=#666666;" parent="538" vertex="1">
                    <mxGeometry x="2809" y="138.67" width="216" height="1911" as="geometry"/>
                </mxCell>
                <mxCell id="jfYItdnhFlpZmDzV3BWn-951" value="" style="strokeColor=inherit;fillColor=inherit;gradientColor=inherit;strokeWidth=1;shadow=0;dashed=0;align=center;html=1;shape=mxgraph.mockup.graphics.rrect;rSize=0;fontColor=#666666;" parent="538" vertex="1">
                    <mxGeometry x="2593" y="138.67" width="216" height="1911" as="geometry"/>
                </mxCell>
                <mxCell id="jfYItdnhFlpZmDzV3BWn-838" value="" style="strokeColor=inherit;fillColor=inherit;gradientColor=inherit;strokeWidth=1;shadow=0;dashed=0;align=center;html=1;shape=mxgraph.mockup.graphics.rrect;rSize=0;fontColor=#666666;" parent="538" vertex="1">
                    <mxGeometry x="2377" y="139" width="216" height="1911" as="geometry"/>
                </mxCell>
                <mxCell id="jfYItdnhFlpZmDzV3BWn-837" value="" style="strokeColor=inherit;fillColor=inherit;gradientColor=inherit;strokeWidth=1;shadow=0;dashed=0;align=center;html=1;shape=mxgraph.mockup.graphics.rrect;rSize=0;fontColor=#666666;" parent="538" vertex="1">
                    <mxGeometry x="2160" y="139" width="216" height="1911" as="geometry"/>
                </mxCell>
                <mxCell id="540" value="Task" style="strokeColor=inherit;fillColor=inherit;gradientColor=inherit;strokeWidth=1;shadow=0;dashed=0;align=center;html=1;shape=mxgraph.mockup.graphics.rrect;rSize=0;fontColor=#666666;" parent="538" vertex="1">
                    <mxGeometry x="72" width="208" height="138.67" as="geometry"/>
                </mxCell>
                <mxCell id="541" value="Start" style="strokeColor=inherit;fillColor=inherit;gradientColor=inherit;strokeWidth=1;shadow=0;dashed=0;align=center;html=1;shape=mxgraph.mockup.graphics.rrect;rSize=0;fontColor=#666666;" parent="538" vertex="1">
                    <mxGeometry x="280" width="404" height="138.67" as="geometry"/>
                </mxCell>
                <mxCell id="542" value="Effort" style="strokeColor=inherit;fillColor=inherit;gradientColor=inherit;strokeWidth=1;shadow=0;dashed=0;align=center;html=1;shape=mxgraph.mockup.graphics.rrect;rSize=0;fontColor=#666666;" parent="538" vertex="1">
                    <mxGeometry x="683.9999999999998" width="179.99999999999994" height="138.66666666666663" as="geometry"/>
                </mxCell>
                <mxCell id="543" value="week 1" style="strokeColor=inherit;fillColor=inherit;gradientColor=inherit;strokeWidth=1;shadow=0;dashed=0;align=center;html=1;shape=mxgraph.mockup.graphics.rrect;rSize=0;fontColor=#666666;" parent="538" vertex="1">
                    <mxGeometry x="863.9999999999999" width="755.9999999999999" height="69.33333333333331" as="geometry"/>
                </mxCell>
                <mxCell id="544" value="week2" style="strokeColor=inherit;fillColor=inherit;gradientColor=inherit;strokeWidth=1;shadow=0;dashed=0;align=center;html=1;shape=mxgraph.mockup.graphics.rrect;rSize=0;fontColor=#666666;" parent="538" vertex="1">
                    <mxGeometry x="1620" width="760" height="69.33" as="geometry"/>
                </mxCell>
                <mxCell id="545" value="M" style="strokeColor=inherit;fillColor=inherit;gradientColor=inherit;strokeWidth=1;shadow=0;dashed=0;align=center;html=1;shape=mxgraph.mockup.graphics.rrect;rSize=0;;fontColor=#666666;" parent="538" vertex="1">
                    <mxGeometry x="863.9999999999999" y="69.33333333333331" width="107.99999999999999" height="69.33333333333331" as="geometry"/>
                </mxCell>
                <mxCell id="546" value="T" style="strokeColor=inherit;fillColor=inherit;gradientColor=inherit;strokeWidth=1;shadow=0;dashed=0;align=center;html=1;shape=mxgraph.mockup.graphics.rrect;rSize=0;fontColor=#666666;" parent="538" vertex="1">
                    <mxGeometry x="972" y="69.33333333333331" width="107.99999999999999" height="69.33333333333331" as="geometry"/>
                </mxCell>
                <mxCell id="547" value="W" style="strokeColor=inherit;fillColor=inherit;gradientColor=inherit;strokeWidth=1;shadow=0;dashed=0;align=center;html=1;shape=mxgraph.mockup.graphics.rrect;rSize=0;fontColor=#666666;" parent="538" vertex="1">
                    <mxGeometry x="1079.9999999999998" y="69.33333333333331" width="107.99999999999999" height="69.33333333333331" as="geometry"/>
                </mxCell>
                <mxCell id="548" value="T" style="strokeColor=inherit;fillColor=inherit;gradientColor=inherit;strokeWidth=1;shadow=0;dashed=0;align=center;html=1;shape=mxgraph.mockup.graphics.rrect;rSize=0;fontColor=#666666;" parent="538" vertex="1">
                    <mxGeometry x="1187.9999999999995" y="69.33333333333331" width="107.99999999999999" height="69.33333333333331" as="geometry"/>
                </mxCell>
                <mxCell id="549" value="F" style="strokeColor=inherit;fillColor=inherit;gradientColor=inherit;strokeWidth=1;shadow=0;dashed=0;align=center;html=1;shape=mxgraph.mockup.graphics.rrect;rSize=0;fontColor=#666666;" parent="538" vertex="1">
                    <mxGeometry x="1295.9999999999998" y="69.33333333333331" width="107.99999999999999" height="69.33333333333331" as="geometry"/>
                </mxCell>
                <mxCell id="550" value="S" style="strokeColor=inherit;fillColor=inherit;gradientColor=inherit;strokeWidth=1;shadow=0;dashed=0;align=center;html=1;shape=mxgraph.mockup.graphics.rrect;rSize=0;fontColor=#666666;" parent="538" vertex="1">
                    <mxGeometry x="1403.9999999999998" y="69.33333333333331" width="107.99999999999999" height="69.33333333333331" as="geometry"/>
                </mxCell>
                <mxCell id="551" value="S" style="strokeColor=inherit;fillColor=inherit;gradientColor=inherit;strokeWidth=1;shadow=0;dashed=0;align=center;html=1;shape=mxgraph.mockup.graphics.rrect;rSize=0;fontColor=#666666;" parent="538" vertex="1">
                    <mxGeometry x="1511.9999999999998" y="69.33333333333331" width="107.99999999999999" height="69.33333333333331" as="geometry"/>
                </mxCell>
                <mxCell id="552" value="M" style="strokeColor=inherit;fillColor=inherit;gradientColor=inherit;strokeWidth=1;shadow=0;dashed=0;align=center;html=1;shape=mxgraph.mockup.graphics.rrect;rSize=0;fontColor=#666666;" parent="538" vertex="1">
                    <mxGeometry x="1619.9999999999998" y="69.33333333333331" width="107.99999999999999" height="69.33333333333331" as="geometry"/>
                </mxCell>
                <mxCell id="553" value="T" style="strokeColor=inherit;fillColor=inherit;gradientColor=inherit;strokeWidth=1;shadow=0;dashed=0;align=center;html=1;shape=mxgraph.mockup.graphics.rrect;rSize=0;fontColor=#666666;" parent="538" vertex="1">
                    <mxGeometry x="1727.9999999999998" y="69.33333333333331" width="107.99999999999999" height="69.33333333333331" as="geometry"/>
                </mxCell>
                <mxCell id="554" value="W" style="strokeColor=inherit;fillColor=inherit;gradientColor=inherit;strokeWidth=1;shadow=0;dashed=0;align=center;html=1;shape=mxgraph.mockup.graphics.rrect;rSize=0;fontColor=#666666;" parent="538" vertex="1">
                    <mxGeometry x="1835.9999999999995" y="69.33333333333331" width="107.99999999999999" height="69.33333333333331" as="geometry"/>
                </mxCell>
                <mxCell id="555" value="T" style="strokeColor=inherit;fillColor=inherit;gradientColor=inherit;strokeWidth=1;shadow=0;dashed=0;align=center;html=1;shape=mxgraph.mockup.graphics.rrect;rSize=0;fontColor=#666666;" parent="538" vertex="1">
                    <mxGeometry x="1944" y="69.33333333333331" width="107.99999999999999" height="69.33333333333331" as="geometry"/>
                </mxCell>
                <mxCell id="556" value="F" style="strokeColor=inherit;fillColor=inherit;gradientColor=inherit;strokeWidth=1;shadow=0;dashed=0;align=center;html=1;shape=mxgraph.mockup.graphics.rrect;rSize=0;fontColor=#666666;" parent="538" vertex="1">
                    <mxGeometry x="2052" y="69.33333333333331" width="107.99999999999999" height="69.33333333333331" as="geometry"/>
                </mxCell>
                <mxCell id="557" value="" style="strokeColor=inherit;fillColor=inherit;gradientColor=inherit;strokeWidth=1;shadow=0;dashed=0;align=center;html=1;shape=mxgraph.mockup.graphics.rrect;rSize=0;fontColor=#666666;" parent="538" vertex="1">
                    <mxGeometry x="-70" y="138.67" width="934" height="1911.33" as="geometry"/>
                </mxCell>
                <mxCell id="558" value="" style="strokeColor=inherit;fillColor=inherit;gradientColor=inherit;strokeWidth=1;shadow=0;dashed=0;align=center;html=1;shape=mxgraph.mockup.graphics.rrect;rSize=0;fontColor=#666666;" parent="538" vertex="1">
                    <mxGeometry x="864" y="138.67" width="216" height="1911.33" as="geometry"/>
                </mxCell>
                <mxCell id="559" value="" style="strokeColor=inherit;fillColor=inherit;gradientColor=inherit;strokeWidth=1;shadow=0;dashed=0;align=center;html=1;shape=mxgraph.mockup.graphics.rrect;rSize=0;fontColor=#666666;" parent="538" vertex="1">
                    <mxGeometry x="1080" y="138.67" width="216" height="1911.33" as="geometry"/>
                </mxCell>
                <mxCell id="560" value="" style="strokeColor=inherit;fillColor=inherit;gradientColor=inherit;strokeWidth=1;shadow=0;dashed=0;align=center;html=1;shape=mxgraph.mockup.graphics.rrect;rSize=0;fontColor=#666666;" parent="538" vertex="1">
                    <mxGeometry x="1296" y="138.67" width="216" height="1911.33" as="geometry"/>
                </mxCell>
                <mxCell id="561" value="" style="strokeColor=inherit;fillColor=inherit;gradientColor=inherit;strokeWidth=1;shadow=0;dashed=0;align=center;html=1;shape=mxgraph.mockup.graphics.rrect;rSize=0;fontColor=#666666;" parent="538" vertex="1">
                    <mxGeometry x="1512" y="138.67" width="216" height="1911.33" as="geometry"/>
                </mxCell>
                <mxCell id="562" value="" style="strokeColor=inherit;fillColor=inherit;gradientColor=inherit;strokeWidth=1;shadow=0;dashed=0;align=center;html=1;shape=mxgraph.mockup.graphics.rrect;rSize=0;fontColor=#666666;" parent="538" vertex="1">
                    <mxGeometry x="1728" y="138.67" width="216" height="1911.33" as="geometry"/>
                </mxCell>
                <mxCell id="563" value="" style="strokeColor=inherit;fillColor=inherit;gradientColor=inherit;strokeWidth=1;shadow=0;dashed=0;align=center;html=1;shape=mxgraph.mockup.graphics.rrect;rSize=0;fontColor=#666666;" parent="538" vertex="1">
                    <mxGeometry x="1944" y="138.67" width="216" height="1911.33" as="geometry"/>
                </mxCell>
                <mxCell id="565" value="&lt;div style=&quot;background-color: rgb(31, 31, 31); font-family: Consolas, &amp;quot;Courier New&amp;quot;, monospace; font-size: 14px; line-height: 19px;&quot;&gt;&lt;font color=&quot;#569cd6&quot;&gt;&lt;b&gt;v2&lt;/b&gt;&lt;/font&gt;&lt;/div&gt;" style="strokeWidth=1;shadow=0;dashed=0;align=center;html=1;shape=mxgraph.mockup.graphics.anchor;fontColor=#666666;" parent="538" vertex="1">
                    <mxGeometry x="103.99999999999997" y="138.66666666666663" width="143.99999999999994" height="69.33333333333331" as="geometry"/>
                </mxCell>
                <mxCell id="566" value="20//10//2014 8:00 AM" style="strokeWidth=1;shadow=0;dashed=0;align=center;html=1;shape=mxgraph.mockup.graphics.anchor;fontColor=#666666;" parent="538" vertex="1">
                    <mxGeometry x="247.99999999999997" y="138.66666666666663" width="467.9999999999999" height="69.33333333333331" as="geometry"/>
                </mxCell>
                <mxCell id="567" value="&lt;div style=&quot;color: rgb(204, 204, 204); background-color: rgb(31, 31, 31); font-family: Consolas, &amp;quot;Courier New&amp;quot;, monospace; font-size: 14px; line-height: 19px;&quot;&gt;412&lt;/div&gt;" style="strokeWidth=1;shadow=0;dashed=0;align=center;html=1;shape=mxgraph.mockup.graphics.anchor;fontColor=#666666;" parent="538" vertex="1">
                    <mxGeometry x="683.9999999999998" y="138.66666666666663" width="179.99999999999994" height="69.33333333333331" as="geometry"/>
                </mxCell>
                <mxCell id="569" value="&lt;div style=&quot;color: rgb(204, 204, 204); background-color: rgb(31, 31, 31); font-family: Consolas, &amp;quot;Courier New&amp;quot;, monospace; font-size: 14px; line-height: 19px;&quot;&gt;&lt;div style=&quot;line-height: 19px;&quot;&gt;&lt;span style=&quot;color: #569cd6;font-weight: bold;&quot;&gt;Stakeholder Requirements&amp;nbsp;&lt;/span&gt;&lt;/div&gt;&lt;div style=&quot;line-height: 19px;&quot;&gt;&lt;span style=&quot;color: #569cd6;font-weight: bold;&quot;&gt;Definition Process&lt;/span&gt;&lt;/div&gt;&lt;/div&gt;" style="strokeWidth=1;shadow=0;dashed=0;align=center;html=1;shape=mxgraph.mockup.graphics.anchor;fontColor=#666666;" parent="538" vertex="1">
                    <mxGeometry x="103.99999999999997" y="208" width="143.99999999999994" height="69.33333333333331" as="geometry"/>
                </mxCell>
                <mxCell id="570" value="20//10//2014 8:00 AM" style="strokeWidth=1;shadow=0;dashed=0;align=center;html=1;shape=mxgraph.mockup.graphics.anchor;fontColor=#666666;" parent="538" vertex="1">
                    <mxGeometry x="247.99999999999997" y="208" width="467.9999999999999" height="69.33333333333331" as="geometry"/>
                </mxCell>
                <mxCell id="571" value="&lt;div style=&quot;color: rgb(204, 204, 204); background-color: rgb(31, 31, 31); font-family: Consolas, &amp;quot;Courier New&amp;quot;, monospace; font-size: 14px; line-height: 19px;&quot;&gt;8&lt;/div&gt;" style="strokeWidth=1;shadow=0;dashed=0;align=center;html=1;shape=mxgraph.mockup.graphics.anchor;fontColor=#666666;" parent="538" vertex="1">
                    <mxGeometry x="683.9999999999998" y="208" width="179.99999999999994" height="69.33333333333331" as="geometry"/>
                </mxCell>
                <mxCell id="573" value="&lt;div style=&quot;color: rgb(204, 204, 204); background-color: rgb(31, 31, 31); font-family: Consolas, &amp;quot;Courier New&amp;quot;, monospace; font-size: 14px; line-height: 19px;&quot;&gt;&lt;span style=&quot;color: #569cd6;font-weight: bold;&quot;&gt;Software Implementation&amp;nbsp;&lt;/span&gt;&lt;/div&gt;&lt;div style=&quot;color: rgb(204, 204, 204); background-color: rgb(31, 31, 31); font-family: Consolas, &amp;quot;Courier New&amp;quot;, monospace; font-size: 14px; line-height: 19px;&quot;&gt;&lt;span style=&quot;color: #569cd6;font-weight: bold;&quot;&gt;Processes&lt;/span&gt;&lt;/div&gt;" style="strokeWidth=1;shadow=0;dashed=0;align=center;html=1;shape=mxgraph.mockup.graphics.anchor;fontColor=#666666;" parent="538" vertex="1">
                    <mxGeometry x="103.99999999999997" y="277.33333333333326" width="143.99999999999994" height="69.33333333333331" as="geometry"/>
                </mxCell>
                <mxCell id="574" value="20//10//2014 8:00 AM" style="strokeWidth=1;shadow=0;dashed=0;align=center;html=1;shape=mxgraph.mockup.graphics.anchor;fontColor=#666666;" parent="538" vertex="1">
                    <mxGeometry x="247.99999999999997" y="277.33333333333326" width="467.9999999999999" height="69.33333333333331" as="geometry"/>
                </mxCell>
                <mxCell id="575" value="&lt;div style=&quot;color: rgb(204, 204, 204); background-color: rgb(31, 31, 31); font-family: Consolas, &amp;quot;Courier New&amp;quot;, monospace; font-size: 14px; line-height: 19px;&quot;&gt;520&lt;/div&gt;" style="strokeWidth=1;shadow=0;dashed=0;align=center;html=1;shape=mxgraph.mockup.graphics.anchor;fontColor=#666666;" parent="538" vertex="1">
                    <mxGeometry x="683.9999999999998" y="277.33333333333326" width="179.99999999999994" height="69.33333333333331" as="geometry"/>
                </mxCell>
                <mxCell id="577" value="&lt;div style=&quot;color: rgb(204, 204, 204); background-color: rgb(31, 31, 31); font-family: Consolas, &amp;quot;Courier New&amp;quot;, monospace; font-size: 14px; line-height: 19px;&quot;&gt;Software Requirements&amp;nbsp;&lt;/div&gt;&lt;div style=&quot;color: rgb(204, 204, 204); background-color: rgb(31, 31, 31); font-family: Consolas, &amp;quot;Courier New&amp;quot;, monospace; font-size: 14px; line-height: 19px;&quot;&gt;Analysis Process&lt;/div&gt;" style="strokeWidth=1;shadow=0;dashed=0;align=center;html=1;shape=mxgraph.mockup.graphics.anchor;fontColor=#666666;" parent="538" vertex="1">
                    <mxGeometry x="103.99999999999997" y="346.6666666666666" width="143.99999999999994" height="69.33333333333331" as="geometry"/>
                </mxCell>
                <mxCell id="578" value="20//10//2014 8:00 AM" style="strokeWidth=1;shadow=0;dashed=0;align=center;html=1;shape=mxgraph.mockup.graphics.anchor;fontColor=#666666;" parent="538" vertex="1">
                    <mxGeometry x="247.99999999999997" y="346.6666666666666" width="467.9999999999999" height="69.33333333333331" as="geometry"/>
                </mxCell>
                <mxCell id="579" value="&lt;div style=&quot;color: rgb(204, 204, 204); background-color: rgb(31, 31, 31); font-family: Consolas, &amp;quot;Courier New&amp;quot;, monospace; font-size: 14px; line-height: 19px;&quot;&gt;&lt;div style=&quot;line-height: 19px;&quot;&gt;100&lt;/div&gt;&lt;/div&gt;" style="strokeWidth=1;shadow=0;dashed=0;align=center;html=1;shape=mxgraph.mockup.graphics.anchor;fontColor=#666666;" parent="538" vertex="1">
                    <mxGeometry x="683.9999999999998" y="346.6666666666666" width="179.99999999999994" height="69.33333333333331" as="geometry"/>
                </mxCell>
                <mxCell id="539" value="#" style="strokeColor=inherit;fillColor=inherit;gradientColor=inherit;strokeWidth=1;shadow=0;dashed=0;align=center;html=1;shape=mxgraph.mockup.graphics.rrect;rSize=0;fontColor=#666666;" parent="538" vertex="1">
                    <mxGeometry x="-70" width="142" height="138.67" as="geometry"/>
                </mxCell>
                <mxCell id="572" value="3" style="strokeWidth=1;shadow=0;dashed=0;align=center;html=1;shape=mxgraph.mockup.graphics.anchor;fontColor=#666666;" parent="538" vertex="1">
                    <mxGeometry x="-70" y="628.3433333333332" width="71.99999999999997" height="69.33333333333331" as="geometry"/>
                </mxCell>
                <mxCell id="591" value="2.1" style="strokeWidth=1;shadow=0;dashed=0;align=center;html=1;shape=mxgraph.mockup.graphics.anchor;fontColor=#666666;" parent="538" vertex="1">
                    <mxGeometry y="346.66999999999996" width="71.99999999999997" height="69.33333333333331" as="geometry"/>
                </mxCell>
                <mxCell id="592" value="2.2" style="strokeWidth=1;shadow=0;dashed=0;align=center;html=1;shape=mxgraph.mockup.graphics.anchor;fontColor=#666666;" parent="538" vertex="1">
                    <mxGeometry y="415.99999999999994" width="71.99999999999997" height="69.33333333333331" as="geometry"/>
                </mxCell>
                <mxCell id="593" value="2.3" style="strokeWidth=1;shadow=0;dashed=0;align=center;html=1;shape=mxgraph.mockup.graphics.anchor;fontColor=#666666;" parent="538" vertex="1">
                    <mxGeometry y="489.99999999999994" width="71.99999999999997" height="69.33333333333331" as="geometry"/>
                </mxCell>
                <mxCell id="596" value="3.1" style="strokeWidth=1;shadow=0;dashed=0;align=center;html=1;shape=mxgraph.mockup.graphics.anchor;fontColor=#666666;" parent="538" vertex="1">
                    <mxGeometry y="697.6733333333333" width="71.99999999999997" height="69.33333333333331" as="geometry"/>
                </mxCell>
                <mxCell id="585" value="3.3" style="strokeWidth=1;shadow=0;dashed=0;align=center;html=1;shape=mxgraph.mockup.graphics.anchor;fontColor=#666666;" parent="538" vertex="1">
                    <mxGeometry y="839.3266666666665" width="71.99999999999997" height="69.33333333333331" as="geometry"/>
                </mxCell>
                <mxCell id="564" value="1" style="strokeWidth=1;shadow=0;dashed=0;align=center;html=1;shape=mxgraph.mockup.graphics.anchor;fontColor=#666666;" parent="538" vertex="1">
                    <mxGeometry x="-70" y="207.9966666666666" width="71.99999999999997" height="69.33333333333331" as="geometry"/>
                </mxCell>
                <mxCell id="606" value="&lt;div style=&quot;color: rgb(204, 204, 204); background-color: rgb(31, 31, 31); font-family: Consolas, &amp;quot;Courier New&amp;quot;, monospace; font-size: 14px; line-height: 19px;&quot;&gt;&lt;div style=&quot;line-height: 19px;&quot;&gt;Software Architectural&amp;nbsp;&lt;/div&gt;&lt;div style=&quot;line-height: 19px;&quot;&gt;Design Process&lt;/div&gt;&lt;/div&gt;" style="strokeWidth=1;shadow=0;dashed=0;align=center;html=1;shape=mxgraph.mockup.graphics.anchor;fontColor=#666666;" parent="538" vertex="1">
                    <mxGeometry x="104" y="420.66999999999996" width="143.99999999999994" height="69.33333333333331" as="geometry"/>
                </mxCell>
                <mxCell id="607" value="&lt;div style=&quot;color: rgb(204, 204, 204); background-color: rgb(31, 31, 31); font-family: Consolas, &amp;quot;Courier New&amp;quot;, monospace; font-size: 14px; line-height: 19px;&quot;&gt;&lt;div style=&quot;line-height: 19px;&quot;&gt;Software Detailed&amp;nbsp;&lt;/div&gt;&lt;div style=&quot;line-height: 19px;&quot;&gt;Design Process&lt;/div&gt;&lt;/div&gt;" style="strokeWidth=1;shadow=0;dashed=0;align=center;html=1;shape=mxgraph.mockup.graphics.anchor;fontColor=#666666;" parent="538" vertex="1">
                    <mxGeometry x="104" y="490.0033333333332" width="143.99999999999994" height="69.33333333333331" as="geometry"/>
                </mxCell>
                <mxCell id="608" value="&lt;div style=&quot;color: rgb(204, 204, 204); background-color: rgb(31, 31, 31); font-family: Consolas, &amp;quot;Courier New&amp;quot;, monospace; font-size: 14px; line-height: 19px;&quot;&gt;&lt;span style=&quot;color: #569cd6;font-weight: bold;&quot;&gt;Software Support&amp;nbsp;&lt;/span&gt;&lt;/div&gt;&lt;div style=&quot;color: rgb(204, 204, 204); background-color: rgb(31, 31, 31); font-family: Consolas, &amp;quot;Courier New&amp;quot;, monospace; font-size: 14px; line-height: 19px;&quot;&gt;&lt;span style=&quot;color: #569cd6;font-weight: bold;&quot;&gt;Processes&lt;/span&gt;&lt;/div&gt;" style="strokeWidth=1;shadow=0;dashed=0;align=center;html=1;shape=mxgraph.mockup.graphics.anchor;fontColor=#666666;" parent="538" vertex="1">
                    <mxGeometry x="104" y="627.6766666666666" width="143.99999999999994" height="69.33333333333331" as="geometry"/>
                </mxCell>
                <mxCell id="604" value="&lt;div style=&quot;color: rgb(204, 204, 204); background-color: rgb(31, 31, 31); font-family: Consolas, &amp;quot;Courier New&amp;quot;, monospace; font-size: 14px; line-height: 19px;&quot;&gt;&lt;div style=&quot;line-height: 19px;&quot;&gt;Software Quality&amp;nbsp;&lt;/div&gt;&lt;div style=&quot;line-height: 19px;&quot;&gt;Assurance Process&lt;/div&gt;&lt;/div&gt;" style="strokeWidth=1;shadow=0;dashed=0;align=center;html=1;shape=mxgraph.mockup.graphics.anchor;fontColor=#666666;" parent="538" vertex="1">
                    <mxGeometry x="104" y="766.3433333333334" width="143.99999999999994" height="69.33333333333331" as="geometry"/>
                </mxCell>
                <mxCell id="603" value="&lt;div style=&quot;color: rgb(204, 204, 204); background-color: rgb(31, 31, 31); font-family: Consolas, &amp;quot;Courier New&amp;quot;, monospace; font-size: 14px; line-height: 19px;&quot;&gt;Software Documentation&amp;nbsp;&lt;/div&gt;&lt;div style=&quot;color: rgb(204, 204, 204); background-color: rgb(31, 31, 31); font-family: Consolas, &amp;quot;Courier New&amp;quot;, monospace; font-size: 14px; line-height: 19px;&quot;&gt;Management Process&lt;/div&gt;" style="strokeWidth=1;shadow=0;dashed=0;align=center;html=1;shape=mxgraph.mockup.graphics.anchor;fontColor=#666666;" parent="538" vertex="1">
                    <mxGeometry x="104" y="697.0100000000001" width="143.99999999999994" height="69.33333333333331" as="geometry"/>
                </mxCell>
                <mxCell id="611" value="&lt;div style=&quot;color: rgb(204, 204, 204); background-color: rgb(31, 31, 31); font-family: Consolas, &amp;quot;Courier New&amp;quot;, monospace; font-size: 14px; line-height: 19px;&quot;&gt;&lt;div style=&quot;line-height: 19px;&quot;&gt;Software Review&amp;nbsp;&lt;/div&gt;&lt;div style=&quot;line-height: 19px;&quot;&gt;Process&lt;/div&gt;&lt;/div&gt;" style="strokeWidth=1;shadow=0;dashed=0;align=center;html=1;shape=mxgraph.mockup.graphics.anchor;fontColor=#666666;" parent="538" vertex="1">
                    <mxGeometry x="104" y="839.33" width="143.99999999999994" height="69.33333333333331" as="geometry"/>
                </mxCell>
                <mxCell id="616" value="20//10//2014 8:00 AM" style="strokeWidth=1;shadow=0;dashed=0;align=center;html=1;shape=mxgraph.mockup.graphics.anchor;fontColor=#666666;" parent="538" vertex="1">
                    <mxGeometry x="248" y="415.9966666666666" width="467.9999999999999" height="69.33333333333331" as="geometry"/>
                </mxCell>
                <mxCell id="617" value="20//10//2014 8:00 AM" style="strokeWidth=1;shadow=0;dashed=0;align=center;html=1;shape=mxgraph.mockup.graphics.anchor;fontColor=#666666;" parent="538" vertex="1">
                    <mxGeometry x="248" y="485.33" width="467.9999999999999" height="69.33333333333331" as="geometry"/>
                </mxCell>
                <mxCell id="618" value="20//10//2014 8:00 AM" style="strokeWidth=1;shadow=0;dashed=0;align=center;html=1;shape=mxgraph.mockup.graphics.anchor;fontColor=#666666;" parent="538" vertex="1">
                    <mxGeometry x="248" y="554.6633333333332" width="467.9999999999999" height="69.33333333333331" as="geometry"/>
                </mxCell>
                <mxCell id="619" value="20//10//2014 8:00 AM" style="strokeWidth=1;shadow=0;dashed=0;align=center;html=1;shape=mxgraph.mockup.graphics.anchor;fontColor=#666666;" parent="538" vertex="1">
                    <mxGeometry x="248" y="623.9966666666666" width="467.9999999999999" height="69.33333333333331" as="geometry"/>
                </mxCell>
                <mxCell id="620" value="20//10//2014 8:00 AM" style="strokeWidth=1;shadow=0;dashed=0;align=center;html=1;shape=mxgraph.mockup.graphics.anchor;fontColor=#666666;" parent="538" vertex="1">
                    <mxGeometry x="248" y="698.0066666666667" width="467.9999999999999" height="69.33333333333331" as="geometry"/>
                </mxCell>
                <mxCell id="621" value="20//10//2014 8:00 AM" style="strokeWidth=1;shadow=0;dashed=0;align=center;html=1;shape=mxgraph.mockup.graphics.anchor;fontColor=#666666;" parent="538" vertex="1">
                    <mxGeometry x="248" y="767.3399999999999" width="467.9999999999999" height="69.33333333333331" as="geometry"/>
                </mxCell>
                <mxCell id="622" value="20//10//2014 8:00 AM" style="strokeWidth=1;shadow=0;dashed=0;align=center;html=1;shape=mxgraph.mockup.graphics.anchor;fontColor=#666666;" parent="538" vertex="1">
                    <mxGeometry x="248" y="836.6733333333332" width="467.9999999999999" height="69.33333333333331" as="geometry"/>
                </mxCell>
                <mxCell id="629" value="&lt;div style=&quot;color: rgb(204, 204, 204); background-color: rgb(31, 31, 31); font-family: Consolas, &amp;quot;Courier New&amp;quot;, monospace; font-size: 14px; line-height: 19px;&quot;&gt;&lt;div style=&quot;line-height: 19px;&quot;&gt;&lt;div style=&quot;line-height: 19px;&quot;&gt;40&lt;/div&gt;&lt;/div&gt;&lt;/div&gt;" style="strokeWidth=1;shadow=0;dashed=0;align=center;html=1;shape=mxgraph.mockup.graphics.anchor;fontColor=#666666;" parent="538" vertex="1">
                    <mxGeometry x="683.9999999999998" y="416.0066666666666" width="179.99999999999994" height="69.33333333333331" as="geometry"/>
                </mxCell>
                <mxCell id="630" value="&lt;div style=&quot;color: rgb(204, 204, 204); background-color: rgb(31, 31, 31); font-family: Consolas, &amp;quot;Courier New&amp;quot;, monospace; font-size: 14px; line-height: 19px;&quot;&gt;&lt;div style=&quot;line-height: 19px;&quot;&gt;&lt;div style=&quot;line-height: 19px;&quot;&gt;30&lt;/div&gt;&lt;/div&gt;&lt;/div&gt;" style="strokeWidth=1;shadow=0;dashed=0;align=center;html=1;shape=mxgraph.mockup.graphics.anchor;fontColor=#666666;" parent="538" vertex="1">
                    <mxGeometry x="683.9999999999998" y="485.34" width="179.99999999999994" height="69.33333333333331" as="geometry"/>
                </mxCell>
                <mxCell id="631" value="&lt;div style=&quot;color: rgb(204, 204, 204); background-color: rgb(31, 31, 31); font-family: Consolas, &amp;quot;Courier New&amp;quot;, monospace; font-size: 14px; line-height: 19px;&quot;&gt;&lt;div style=&quot;line-height: 19px;&quot;&gt;350&lt;/div&gt;&lt;/div&gt;" style="strokeWidth=1;shadow=0;dashed=0;align=center;html=1;shape=mxgraph.mockup.graphics.anchor;fontColor=#666666;" parent="538" vertex="1">
                    <mxGeometry x="683.9999999999998" y="554.6733333333332" width="179.99999999999994" height="69.33333333333331" as="geometry"/>
                </mxCell>
                <mxCell id="632" value="&lt;div style=&quot;color: rgb(204, 204, 204); background-color: rgb(31, 31, 31); font-family: Consolas, &amp;quot;Courier New&amp;quot;, monospace; font-size: 14px; line-height: 19px;&quot;&gt;&lt;div style=&quot;line-height: 19px;&quot;&gt;66&lt;/div&gt;&lt;/div&gt;" style="strokeWidth=1;shadow=0;dashed=0;align=center;html=1;shape=mxgraph.mockup.graphics.anchor;fontColor=#666666;" parent="538" vertex="1">
                    <mxGeometry x="683.9999999999998" y="624.0066666666665" width="179.99999999999994" height="69.33333333333331" as="geometry"/>
                </mxCell>
                <mxCell id="633" value="&lt;div style=&quot;color: rgb(204, 204, 204); background-color: rgb(31, 31, 31); font-family: Consolas, &amp;quot;Courier New&amp;quot;, monospace; font-size: 14px; line-height: 19px;&quot;&gt;&lt;div style=&quot;line-height: 19px;&quot;&gt;&lt;div style=&quot;line-height: 19px;&quot;&gt;40&lt;/div&gt;&lt;/div&gt;&lt;/div&gt;" style="strokeWidth=1;shadow=0;dashed=0;align=center;html=1;shape=mxgraph.mockup.graphics.anchor;fontColor=#666666;" parent="538" vertex="1">
                    <mxGeometry x="683.9999999999998" y="698.0066666666667" width="179.99999999999994" height="69.33333333333331" as="geometry"/>
                </mxCell>
                <mxCell id="634" value="&lt;div style=&quot;color: rgb(204, 204, 204); background-color: rgb(31, 31, 31); font-family: Consolas, &amp;quot;Courier New&amp;quot;, monospace; font-size: 14px; line-height: 19px;&quot;&gt;&lt;div style=&quot;line-height: 19px;&quot;&gt;&lt;div style=&quot;line-height: 19px;&quot;&gt;20&lt;/div&gt;&lt;/div&gt;&lt;/div&gt;" style="strokeWidth=1;shadow=0;dashed=0;align=center;html=1;shape=mxgraph.mockup.graphics.anchor;fontColor=#666666;" parent="538" vertex="1">
                    <mxGeometry x="683.9999999999998" y="767.3399999999999" width="179.99999999999994" height="69.33333333333331" as="geometry"/>
                </mxCell>
                <mxCell id="635" value="&lt;div style=&quot;color: rgb(204, 204, 204); background-color: rgb(31, 31, 31); font-family: Consolas, &amp;quot;Courier New&amp;quot;, monospace; font-size: 14px; line-height: 19px;&quot;&gt;&lt;div style=&quot;line-height: 19px;&quot;&gt;&lt;div style=&quot;line-height: 19px;&quot;&gt;6&lt;/div&gt;&lt;/div&gt;&lt;/div&gt;" style="strokeWidth=1;shadow=0;dashed=0;align=center;html=1;shape=mxgraph.mockup.graphics.anchor;fontColor=#666666;" parent="538" vertex="1">
                    <mxGeometry x="683.9999999999998" y="836.6733333333332" width="179.99999999999994" height="69.33333333333331" as="geometry"/>
                </mxCell>
                <mxCell id="580" value="" style="strokeWidth=1;shadow=0;dashed=0;align=center;html=1;shape=mxgraph.mockup.graphics.rrect;rSize=0;strokeColor=#6F0000;fillColor=#a20025;fontColor=#ffffff;" parent="538" vertex="1">
                    <mxGeometry x="864" y="156" width="3356" height="34.67" as="geometry"/>
                </mxCell>
                <mxCell id="jfYItdnhFlpZmDzV3BWn-898" value="4" style="strokeWidth=1;shadow=0;dashed=0;align=center;html=1;shape=mxgraph.mockup.graphics.anchor;fontColor=#666666;" parent="538" vertex="1">
                    <mxGeometry x="-70" y="907.0066666666665" width="71.99999999999997" height="69.33333333333331" as="geometry"/>
                </mxCell>
                <mxCell id="jfYItdnhFlpZmDzV3BWn-899" value="&lt;div style=&quot;color: rgb(204, 204, 204); background-color: rgb(31, 31, 31); font-family: Consolas, &amp;quot;Courier New&amp;quot;, monospace; font-size: 14px; line-height: 19px;&quot;&gt;&lt;div style=&quot;line-height: 19px;&quot;&gt;&lt;span style=&quot;color: #569cd6;font-weight: bold;&quot;&gt;Acquisition&amp;nbsp;&lt;/span&gt;&lt;/div&gt;&lt;div style=&quot;line-height: 19px;&quot;&gt;&lt;span style=&quot;color: #569cd6;font-weight: bold;&quot;&gt;Process&lt;/span&gt;&lt;/div&gt;&lt;/div&gt;" style="strokeWidth=1;shadow=0;dashed=0;align=center;html=1;shape=mxgraph.mockup.graphics.anchor;fontColor=#666666;" parent="538" vertex="1">
                    <mxGeometry x="104" y="907.0100000000001" width="143.99999999999994" height="69.33333333333331" as="geometry"/>
                </mxCell>
                <mxCell id="jfYItdnhFlpZmDzV3BWn-902" value="3.2" style="strokeWidth=1;shadow=0;dashed=0;align=center;html=1;shape=mxgraph.mockup.graphics.anchor;fontColor=#666666;" parent="538" vertex="1">
                    <mxGeometry y="766.3433333333334" width="71.99999999999997" height="69.33333333333331" as="geometry"/>
                </mxCell>
                <mxCell id="jfYItdnhFlpZmDzV3BWn-903" value="2.4" style="strokeWidth=1;shadow=0;dashed=0;align=center;html=1;shape=mxgraph.mockup.graphics.anchor;fontColor=#666666;" parent="538" vertex="1">
                    <mxGeometry y="558.3399999999999" width="71.99999999999997" height="69.33333333333331" as="geometry"/>
                </mxCell>
                <mxCell id="jfYItdnhFlpZmDzV3BWn-910" value="4.1" style="strokeWidth=1;shadow=0;dashed=0;align=center;html=1;shape=mxgraph.mockup.graphics.anchor;fontColor=#666666;" parent="538" vertex="1">
                    <mxGeometry y="977.0033333333333" width="71.99999999999997" height="69.33333333333331" as="geometry"/>
                </mxCell>
                <mxCell id="jfYItdnhFlpZmDzV3BWn-911" value="4.3" style="strokeWidth=1;shadow=0;dashed=0;align=center;html=1;shape=mxgraph.mockup.graphics.anchor;fontColor=#666666;" parent="538" vertex="1">
                    <mxGeometry y="1118.6566666666665" width="71.99999999999997" height="69.33333333333331" as="geometry"/>
                </mxCell>
                <mxCell id="jfYItdnhFlpZmDzV3BWn-912" value="&lt;div style=&quot;color: rgb(204, 204, 204); background-color: rgb(31, 31, 31); font-family: Consolas, &amp;quot;Courier New&amp;quot;, monospace; font-size: 14px; line-height: 19px;&quot;&gt;&lt;div style=&quot;line-height: 19px;&quot;&gt;Acquisition&amp;nbsp;&lt;/div&gt;&lt;div style=&quot;line-height: 19px;&quot;&gt;Advertisement&lt;/div&gt;&lt;/div&gt;" style="strokeWidth=1;shadow=0;dashed=0;align=center;html=1;shape=mxgraph.mockup.graphics.anchor;fontColor=#666666;" parent="538" vertex="1">
                    <mxGeometry x="104" y="1045.6733333333334" width="143.99999999999994" height="69.33333333333331" as="geometry"/>
                </mxCell>
                <mxCell id="jfYItdnhFlpZmDzV3BWn-913" value="&lt;div style=&quot;color: rgb(204, 204, 204); background-color: rgb(31, 31, 31); font-family: Consolas, &amp;quot;Courier New&amp;quot;, monospace; font-size: 14px; line-height: 19px;&quot;&gt;&lt;div style=&quot;line-height: 19px;&quot;&gt;Acquisition&amp;nbsp;&lt;/div&gt;&lt;div style=&quot;line-height: 19px;&quot;&gt;Preparation&lt;/div&gt;&lt;/div&gt;" style="strokeWidth=1;shadow=0;dashed=0;align=center;html=1;shape=mxgraph.mockup.graphics.anchor;fontColor=#666666;" parent="538" vertex="1">
                    <mxGeometry x="104" y="976.3400000000001" width="143.99999999999994" height="69.33333333333331" as="geometry"/>
                </mxCell>
                <mxCell id="jfYItdnhFlpZmDzV3BWn-914" value="&lt;div style=&quot;color: rgb(204, 204, 204); background-color: rgb(31, 31, 31); font-family: Consolas, &amp;quot;Courier New&amp;quot;, monospace; font-size: 14px; line-height: 19px;&quot;&gt;&lt;div style=&quot;line-height: 19px;&quot;&gt;Contract Agreement&lt;/div&gt;&lt;/div&gt;" style="strokeWidth=1;shadow=0;dashed=0;align=center;html=1;shape=mxgraph.mockup.graphics.anchor;fontColor=#666666;" parent="538" vertex="1">
                    <mxGeometry x="104" y="1118.66" width="143.99999999999994" height="69.33333333333331" as="geometry"/>
                </mxCell>
                <mxCell id="jfYItdnhFlpZmDzV3BWn-915" value="4.2" style="strokeWidth=1;shadow=0;dashed=0;align=center;html=1;shape=mxgraph.mockup.graphics.anchor;fontColor=#666666;" parent="538" vertex="1">
                    <mxGeometry y="1045.6733333333334" width="71.99999999999997" height="69.33333333333331" as="geometry"/>
                </mxCell>
                <mxCell id="jfYItdnhFlpZmDzV3BWn-917" value="5" style="strokeWidth=1;shadow=0;dashed=0;align=center;html=1;shape=mxgraph.mockup.graphics.anchor;fontColor=#666666;" parent="538" vertex="1">
                    <mxGeometry x="-70" y="1187.9866666666665" width="71.99999999999997" height="69.33333333333331" as="geometry"/>
                </mxCell>
                <mxCell id="jfYItdnhFlpZmDzV3BWn-919" value="5.1" style="strokeWidth=1;shadow=0;dashed=0;align=center;html=1;shape=mxgraph.mockup.graphics.anchor;fontColor=#666666;" parent="538" vertex="1">
                    <mxGeometry y="1257.3166666666664" width="71.99999999999997" height="69.33333333333331" as="geometry"/>
                </mxCell>
                <mxCell id="jfYItdnhFlpZmDzV3BWn-920" value="&lt;div style=&quot;color: rgb(204, 204, 204); background-color: rgb(31, 31, 31); font-family: Consolas, &amp;quot;Courier New&amp;quot;, monospace; font-size: 14px; line-height: 19px;&quot;&gt;&lt;div style=&quot;line-height: 19px;&quot;&gt;&lt;span style=&quot;color: #569cd6;font-weight: bold;&quot;&gt;Software Validation&amp;nbsp;&lt;/span&gt;&lt;/div&gt;&lt;div style=&quot;line-height: 19px;&quot;&gt;&lt;span style=&quot;color: #569cd6;font-weight: bold;&quot;&gt;Process&lt;/span&gt;&lt;/div&gt;&lt;/div&gt;" style="strokeWidth=1;shadow=0;dashed=0;align=center;html=1;shape=mxgraph.mockup.graphics.anchor;fontColor=#666666;" parent="538" vertex="1">
                    <mxGeometry x="104" y="1326.65" width="143.99999999999994" height="69.33333333333331" as="geometry"/>
                </mxCell>
                <mxCell id="jfYItdnhFlpZmDzV3BWn-921" value="&lt;div style=&quot;color: rgb(204, 204, 204); background-color: rgb(31, 31, 31); font-family: Consolas, &amp;quot;Courier New&amp;quot;, monospace; font-size: 14px; line-height: 19px;&quot;&gt;&lt;div style=&quot;line-height: 19px;&quot;&gt;&lt;span style=&quot;color: #569cd6;font-weight: bold;&quot;&gt;Human Resource&amp;nbsp;&lt;/span&gt;&lt;/div&gt;&lt;div style=&quot;line-height: 19px;&quot;&gt;&lt;span style=&quot;color: #569cd6;font-weight: bold;&quot;&gt;Management Process&lt;/span&gt;&lt;/div&gt;&lt;/div&gt;" style="strokeWidth=1;shadow=0;dashed=0;align=center;html=1;shape=mxgraph.mockup.graphics.anchor;fontColor=#666666;" parent="538" vertex="1">
                    <mxGeometry x="104" y="1395.9833333333333" width="143.99999999999994" height="69.33333333333331" as="geometry"/>
                </mxCell>
                <mxCell id="jfYItdnhFlpZmDzV3BWn-922" value="6" style="strokeWidth=1;shadow=0;dashed=0;align=center;html=1;shape=mxgraph.mockup.graphics.anchor;fontColor=#666666;" parent="538" vertex="1">
                    <mxGeometry x="-70" y="1326.6466666666668" width="71.99999999999997" height="69.33333333333331" as="geometry"/>
                </mxCell>
                <mxCell id="jfYItdnhFlpZmDzV3BWn-923" value="7" style="strokeWidth=1;shadow=0;dashed=0;align=center;html=1;shape=mxgraph.mockup.graphics.anchor;fontColor=#666666;" parent="538" vertex="1">
                    <mxGeometry x="-70" y="1395.98" width="71.99999999999997" height="69.33333333333331" as="geometry"/>
                </mxCell>
                <mxCell id="jfYItdnhFlpZmDzV3BWn-924" value="&lt;div style=&quot;color: rgb(204, 204, 204); background-color: rgb(31, 31, 31); font-family: Consolas, &amp;quot;Courier New&amp;quot;, monospace; font-size: 14px; line-height: 19px;&quot;&gt;&lt;div style=&quot;line-height: 19px;&quot;&gt;Supply Tendering&lt;/div&gt;&lt;/div&gt;" style="strokeWidth=1;shadow=0;dashed=0;align=center;html=1;shape=mxgraph.mockup.graphics.anchor;fontColor=#666666;" parent="538" vertex="1">
                    <mxGeometry x="104" y="1257.3100000000002" width="143.99999999999994" height="69.33333333333331" as="geometry"/>
                </mxCell>
                <mxCell id="jfYItdnhFlpZmDzV3BWn-925" value="&lt;div style=&quot;color: rgb(204, 204, 204); background-color: rgb(31, 31, 31); font-family: Consolas, &amp;quot;Courier New&amp;quot;, monospace; font-size: 14px; line-height: 19px;&quot;&gt;&lt;div style=&quot;line-height: 19px;&quot;&gt;&lt;span style=&quot;color: #569cd6;font-weight: bold;&quot;&gt;Supply Process&lt;/span&gt;&lt;/div&gt;&lt;/div&gt;" style="strokeWidth=1;shadow=0;dashed=0;align=center;html=1;shape=mxgraph.mockup.graphics.anchor;fontColor=#666666;" parent="538" vertex="1">
                    <mxGeometry x="104" y="1187.99" width="143.99999999999994" height="69.33333333333331" as="geometry"/>
                </mxCell>
                <mxCell id="jfYItdnhFlpZmDzV3BWn-926" value="&lt;div style=&quot;color: rgb(204, 204, 204); background-color: rgb(31, 31, 31); font-family: Consolas, &amp;quot;Courier New&amp;quot;, monospace; font-size: 14px; line-height: 19px;&quot;&gt;Software Construction&amp;nbsp;&lt;/div&gt;&lt;div style=&quot;color: rgb(204, 204, 204); background-color: rgb(31, 31, 31); font-family: Consolas, &amp;quot;Courier New&amp;quot;, monospace; font-size: 14px; line-height: 19px;&quot;&gt;Process&lt;/div&gt;" style="strokeWidth=1;shadow=0;dashed=0;align=center;html=1;shape=mxgraph.mockup.graphics.anchor;fontColor=#666666;" parent="538" vertex="1">
                    <mxGeometry x="104" y="558.3433333333332" width="143.99999999999994" height="69.33333333333331" as="geometry"/>
                </mxCell>
                <mxCell id="jfYItdnhFlpZmDzV3BWn-927" value="20//10//2014 8:00 AM" style="strokeWidth=1;shadow=0;dashed=0;align=center;html=1;shape=mxgraph.mockup.graphics.anchor;fontColor=#666666;" parent="538" vertex="1">
                    <mxGeometry x="248" y="908.6666666666667" width="467.9999999999999" height="69.33333333333331" as="geometry"/>
                </mxCell>
                <mxCell id="jfYItdnhFlpZmDzV3BWn-928" value="20//10//2014 8:00 AM" style="strokeWidth=1;shadow=0;dashed=0;align=center;html=1;shape=mxgraph.mockup.graphics.anchor;fontColor=#666666;" parent="538" vertex="1">
                    <mxGeometry x="248" y="978" width="467.9999999999999" height="69.33333333333331" as="geometry"/>
                </mxCell>
                <mxCell id="jfYItdnhFlpZmDzV3BWn-929" value="20//10//2014 8:00 AM" style="strokeWidth=1;shadow=0;dashed=0;align=center;html=1;shape=mxgraph.mockup.graphics.anchor;fontColor=#666666;" parent="538" vertex="1">
                    <mxGeometry x="248" y="1047.3333333333333" width="467.9999999999999" height="69.33333333333331" as="geometry"/>
                </mxCell>
                <mxCell id="jfYItdnhFlpZmDzV3BWn-930" value="20//10//2014 8:00 AM" style="strokeWidth=1;shadow=0;dashed=0;align=center;html=1;shape=mxgraph.mockup.graphics.anchor;fontColor=#666666;" parent="538" vertex="1">
                    <mxGeometry x="248" y="1116.6666666666665" width="467.9999999999999" height="69.33333333333331" as="geometry"/>
                </mxCell>
                <mxCell id="jfYItdnhFlpZmDzV3BWn-931" value="20//10//2014 8:00 AM" style="strokeWidth=1;shadow=0;dashed=0;align=center;html=1;shape=mxgraph.mockup.graphics.anchor;fontColor=#666666;" parent="538" vertex="1">
                    <mxGeometry x="248" y="1185.9966666666667" width="467.9999999999999" height="69.33333333333331" as="geometry"/>
                </mxCell>
                <mxCell id="jfYItdnhFlpZmDzV3BWn-932" value="20//10//2014 8:00 AM" style="strokeWidth=1;shadow=0;dashed=0;align=center;html=1;shape=mxgraph.mockup.graphics.anchor;fontColor=#666666;" parent="538" vertex="1">
                    <mxGeometry x="248" y="1255.33" width="467.9999999999999" height="69.33333333333331" as="geometry"/>
                </mxCell>
                <mxCell id="jfYItdnhFlpZmDzV3BWn-933" value="20//10//2014 8:00 AM" style="strokeWidth=1;shadow=0;dashed=0;align=center;html=1;shape=mxgraph.mockup.graphics.anchor;fontColor=#666666;" parent="538" vertex="1">
                    <mxGeometry x="248" y="1324.6633333333332" width="467.9999999999999" height="69.33333333333331" as="geometry"/>
                </mxCell>
                <mxCell id="jfYItdnhFlpZmDzV3BWn-934" value="20//10//2014 8:00 AM" style="strokeWidth=1;shadow=0;dashed=0;align=center;html=1;shape=mxgraph.mockup.graphics.anchor;fontColor=#666666;" parent="538" vertex="1">
                    <mxGeometry x="248" y="1393.9966666666667" width="467.9999999999999" height="69.33333333333331" as="geometry"/>
                </mxCell>
                <mxCell id="jfYItdnhFlpZmDzV3BWn-938" value="&lt;div style=&quot;color: rgb(204, 204, 204); background-color: rgb(31, 31, 31); font-family: Consolas, &amp;quot;Courier New&amp;quot;, monospace; font-size: 14px; line-height: 19px;&quot;&gt;&lt;div style=&quot;line-height: 19px;&quot;&gt;724&lt;/div&gt;&lt;/div&gt;" style="strokeWidth=1;shadow=0;dashed=0;align=center;html=1;shape=mxgraph.mockup.graphics.anchor;fontColor=#666666;" parent="538" vertex="1">
                    <mxGeometry x="683.9999999999998" y="138.66666666666663" width="179.99999999999994" height="69.33333333333331" as="geometry"/>
                </mxCell>
                <mxCell id="jfYItdnhFlpZmDzV3BWn-939" value="&lt;div style=&quot;color: rgb(204, 204, 204); background-color: rgb(31, 31, 31); font-family: Consolas, &amp;quot;Courier New&amp;quot;, monospace; font-size: 14px; line-height: 19px;&quot;&gt;&lt;div style=&quot;line-height: 19px;&quot;&gt;12&lt;/div&gt;&lt;/div&gt;" style="strokeWidth=1;shadow=0;dashed=0;align=center;html=1;shape=mxgraph.mockup.graphics.anchor;fontColor=#666666;" parent="538" vertex="1">
                    <mxGeometry x="683.9999999999998" y="208" width="179.99999999999994" height="69.33333333333331" as="geometry"/>
                </mxCell>
                <mxCell id="jfYItdnhFlpZmDzV3BWn-940" value="&lt;div style=&quot;color: rgb(204, 204, 204); background-color: rgb(31, 31, 31); font-family: Consolas, &amp;quot;Courier New&amp;quot;, monospace; font-size: 14px; line-height: 19px;&quot;&gt;8&lt;/div&gt;" style="strokeWidth=1;shadow=0;dashed=0;align=center;html=1;shape=mxgraph.mockup.graphics.anchor;fontColor=#666666;" parent="538" vertex="1">
                    <mxGeometry x="683.9999999999998" y="1044.6733333333332" width="179.99999999999994" height="69.33333333333331" as="geometry"/>
                </mxCell>
                <mxCell id="jfYItdnhFlpZmDzV3BWn-941" value="&lt;div style=&quot;color: rgb(204, 204, 204); background-color: rgb(31, 31, 31); font-family: Consolas, &amp;quot;Courier New&amp;quot;, monospace; font-size: 14px; line-height: 19px;&quot;&gt;&lt;div style=&quot;line-height: 19px;&quot;&gt;10&lt;/div&gt;&lt;/div&gt;" style="strokeWidth=1;shadow=0;dashed=0;align=center;html=1;shape=mxgraph.mockup.graphics.anchor;fontColor=#666666;" parent="538" vertex="1">
                    <mxGeometry x="683.9999999999998" y="1114.0066666666667" width="179.99999999999994" height="69.33333333333331" as="geometry"/>
                </mxCell>
                <mxCell id="jfYItdnhFlpZmDzV3BWn-942" value="&lt;div style=&quot;color: rgb(204, 204, 204); background-color: rgb(31, 31, 31); font-family: Consolas, &amp;quot;Courier New&amp;quot;, monospace; font-size: 14px; line-height: 19px;&quot;&gt;&lt;div style=&quot;line-height: 19px;&quot;&gt;&lt;div style=&quot;line-height: 19px;&quot;&gt;12&lt;/div&gt;&lt;/div&gt;&lt;/div&gt;" style="strokeWidth=1;shadow=0;dashed=0;align=center;html=1;shape=mxgraph.mockup.graphics.anchor;fontColor=#666666;" parent="538" vertex="1">
                    <mxGeometry x="683.9999999999998" y="1183.3466666666666" width="179.99999999999994" height="69.33333333333331" as="geometry"/>
                </mxCell>
                <mxCell id="jfYItdnhFlpZmDzV3BWn-943" value="&lt;div style=&quot;color: rgb(204, 204, 204); background-color: rgb(31, 31, 31); font-family: Consolas, &amp;quot;Courier New&amp;quot;, monospace; font-size: 14px; line-height: 19px;&quot;&gt;&lt;div style=&quot;line-height: 19px;&quot;&gt;&lt;div style=&quot;line-height: 19px;&quot;&gt;12&lt;/div&gt;&lt;/div&gt;&lt;/div&gt;" style="strokeWidth=1;shadow=0;dashed=0;align=center;html=1;shape=mxgraph.mockup.graphics.anchor;fontColor=#666666;" parent="538" vertex="1">
                    <mxGeometry x="683.9999999999998" y="1252.68" width="179.99999999999994" height="69.33333333333331" as="geometry"/>
                </mxCell>
                <mxCell id="jfYItdnhFlpZmDzV3BWn-944" value="&lt;div style=&quot;color: rgb(204, 204, 204); background-color: rgb(31, 31, 31); font-family: Consolas, &amp;quot;Courier New&amp;quot;, monospace; font-size: 14px; line-height: 19px;&quot;&gt;&lt;div style=&quot;line-height: 19px;&quot;&gt;40&lt;/div&gt;&lt;/div&gt;" style="strokeWidth=1;shadow=0;dashed=0;align=center;html=1;shape=mxgraph.mockup.graphics.anchor;fontColor=#666666;" parent="538" vertex="1">
                    <mxGeometry x="683.9999999999998" y="1322.0133333333333" width="179.99999999999994" height="69.33333333333331" as="geometry"/>
                </mxCell>
                <mxCell id="jfYItdnhFlpZmDzV3BWn-945" value="&lt;div style=&quot;color: rgb(204, 204, 204); background-color: rgb(31, 31, 31); font-family: Consolas, &amp;quot;Courier New&amp;quot;, monospace; font-size: 14px; line-height: 19px;&quot;&gt;&lt;div style=&quot;line-height: 19px;&quot;&gt;30&lt;/div&gt;&lt;/div&gt;" style="strokeWidth=1;shadow=0;dashed=0;align=center;html=1;shape=mxgraph.mockup.graphics.anchor;fontColor=#666666;" parent="538" vertex="1">
                    <mxGeometry x="683.9999999999998" y="1391.3466666666666" width="179.99999999999994" height="69.33333333333331" as="geometry"/>
                </mxCell>
                <mxCell id="jfYItdnhFlpZmDzV3BWn-949" value="&lt;div style=&quot;color: rgb(204, 204, 204); background-color: rgb(31, 31, 31); font-family: Consolas, &amp;quot;Courier New&amp;quot;, monospace; font-size: 14px; line-height: 19px;&quot;&gt;&lt;div style=&quot;line-height: 19px;&quot;&gt;34&lt;/div&gt;&lt;/div&gt;" style="strokeWidth=1;shadow=0;dashed=0;align=center;html=1;shape=mxgraph.mockup.graphics.anchor;fontColor=#666666;" parent="538" vertex="1">
                    <mxGeometry x="683.9999999999998" y="906.0066666666667" width="179.99999999999994" height="69.33333333333331" as="geometry"/>
                </mxCell>
                <mxCell id="jfYItdnhFlpZmDzV3BWn-950" value="&lt;div style=&quot;color: rgb(204, 204, 204); background-color: rgb(31, 31, 31); font-family: Consolas, &amp;quot;Courier New&amp;quot;, monospace; font-size: 14px; line-height: 19px;&quot;&gt;&lt;div style=&quot;line-height: 19px;&quot;&gt;16&lt;/div&gt;&lt;/div&gt;" style="strokeWidth=1;shadow=0;dashed=0;align=center;html=1;shape=mxgraph.mockup.graphics.anchor;fontColor=#666666;" parent="538" vertex="1">
                    <mxGeometry x="683.9999999999998" y="975.34" width="179.99999999999994" height="69.33333333333331" as="geometry"/>
                </mxCell>
                <mxCell id="EFosTwjenpsRDveEK6V9-712" value="" style="strokeWidth=1;shadow=0;dashed=0;align=center;html=1;shape=mxgraph.mockup.graphics.rrect;rSize=0;strokeColor=#999999;fillColor=#AADDFF;fontColor=#ffffff;" parent="538" vertex="1">
                    <mxGeometry x="880" y="225.33" width="26" height="34.67" as="geometry"/>
                </mxCell>
                <mxCell id="EFosTwjenpsRDveEK6V9-713" value="" style="strokeWidth=1;shadow=0;dashed=0;align=center;html=1;shape=mxgraph.mockup.graphics.rrect;rSize=0;strokeColor=#999999;fillColor=#AADDFF;fontColor=#ffffff;" parent="538" vertex="1">
                    <mxGeometry x="864" y="225.32999999999998" width="16" height="34.67" as="geometry"/>
                </mxCell>
                <mxCell id="EFosTwjenpsRDveEK6V9-714" value="paral" style="text;html=1;align=center;verticalAlign=middle;resizable=0;points=[];autosize=1;strokeColor=none;fillColor=none;" parent="538" vertex="1">
                    <mxGeometry x="-59" y="716.68" width="50" height="30" as="geometry"/>
                </mxCell>
                <mxCell id="EFosTwjenpsRDveEK6V9-715" value="paral" style="text;html=1;align=center;verticalAlign=middle;resizable=0;points=[];autosize=1;strokeColor=none;fillColor=none;" parent="538" vertex="1">
                    <mxGeometry x="11" y="1415.65" width="50" height="30" as="geometry"/>
                </mxCell>
                <mxCell id="EFosTwjenpsRDveEK6V9-716" value="paral" style="text;html=1;align=center;verticalAlign=middle;resizable=0;points=[];autosize=1;strokeColor=none;fillColor=none;" parent="538" vertex="1">
                    <mxGeometry x="-59" y="435.65999999999997" width="50" height="30" as="geometry"/>
                </mxCell>
                <mxCell id="EFosTwjenpsRDveEK6V9-717" value="paral" style="text;html=1;align=center;verticalAlign=middle;resizable=0;points=[];autosize=1;strokeColor=none;fillColor=none;" parent="538" vertex="1">
                    <mxGeometry x="-59" y="509.66999999999996" width="50" height="30" as="geometry"/>
                </mxCell>
                <mxCell id="EFosTwjenpsRDveEK6V9-718" value="paral" style="text;html=1;align=center;verticalAlign=middle;resizable=0;points=[];autosize=1;strokeColor=none;fillColor=none;" parent="538" vertex="1">
                    <mxGeometry x="-59" y="858.99" width="50" height="30" as="geometry"/>
                </mxCell>
                <mxCell id="EFosTwjenpsRDveEK6V9-719" value="2" style="strokeWidth=1;shadow=0;dashed=0;align=center;html=1;shape=mxgraph.mockup.graphics.anchor;fontColor=#666666;" parent="538" vertex="1">
                    <mxGeometry x="-72" y="277.3366666666666" width="71.99999999999997" height="69.33333333333331" as="geometry"/>
                </mxCell>
                <mxCell id="EFosTwjenpsRDveEK6V9-720" value="" style="strokeWidth=1;shadow=0;dashed=0;align=center;html=1;shape=mxgraph.mockup.graphics.rrect;rSize=0;strokeColor=#001DBC;fillColor=#0050ef;fontColor=#ffffff;" parent="538" vertex="1">
                    <mxGeometry x="906" y="294.66999999999996" width="54" height="34.67" as="geometry"/>
                </mxCell>
                <mxCell id="EFosTwjenpsRDveEK6V9-724" value="" style="strokeWidth=1;shadow=0;dashed=0;align=center;html=1;shape=mxgraph.mockup.graphics.rrect;rSize=0;strokeColor=#001DBC;fillColor=#0050ef;fontColor=#ffffff;" parent="538" vertex="1">
                    <mxGeometry x="952" y="294.67" width="20" height="34.67" as="geometry"/>
                </mxCell>
                <mxCell id="EFosTwjenpsRDveEK6V9-725" value="" style="strokeWidth=1;shadow=0;dashed=0;align=center;html=1;shape=mxgraph.mockup.graphics.rrect;rSize=0;strokeColor=#001DBC;fillColor=#0050ef;fontColor=#ffffff;" parent="538" vertex="1">
                    <mxGeometry x="970" y="294.65999999999997" width="54" height="34.67" as="geometry"/>
                </mxCell>
                <mxCell id="EFosTwjenpsRDveEK6V9-726" value="" style="strokeWidth=1;shadow=0;dashed=0;align=center;html=1;shape=mxgraph.mockup.graphics.rrect;rSize=0;strokeColor=#001DBC;fillColor=#0050ef;fontColor=#ffffff;" parent="538" vertex="1">
                    <mxGeometry x="1024" y="294.66" width="56" height="34.67" as="geometry"/>
                </mxCell>
                <mxCell id="EFosTwjenpsRDveEK6V9-727" value="" style="strokeWidth=1;shadow=0;dashed=0;align=center;html=1;shape=mxgraph.mockup.graphics.rrect;rSize=0;strokeColor=#001DBC;fillColor=#0050ef;fontColor=#ffffff;" parent="538" vertex="1">
                    <mxGeometry x="1080" y="294.66999999999996" width="54" height="34.67" as="geometry"/>
                </mxCell>
                <mxCell id="EFosTwjenpsRDveEK6V9-728" value="" style="strokeWidth=1;shadow=0;dashed=0;align=center;html=1;shape=mxgraph.mockup.graphics.rrect;rSize=0;strokeColor=#001DBC;fillColor=#0050ef;fontColor=#ffffff;" parent="538" vertex="1">
                    <mxGeometry x="1134" y="294.66999999999996" width="54" height="34.67" as="geometry"/>
                </mxCell>
                <mxCell id="EFosTwjenpsRDveEK6V9-729" value="" style="strokeWidth=1;shadow=0;dashed=0;align=center;html=1;shape=mxgraph.mockup.graphics.rrect;rSize=0;strokeColor=#001DBC;fillColor=#0050ef;fontColor=#ffffff;" parent="538" vertex="1">
                    <mxGeometry x="1188" y="294.66999999999996" width="54" height="34.67" as="geometry"/>
                </mxCell>
                <mxCell id="EFosTwjenpsRDveEK6V9-730" value="" style="strokeWidth=1;shadow=0;dashed=0;align=center;html=1;shape=mxgraph.mockup.graphics.rrect;rSize=0;strokeColor=#001DBC;fillColor=#0050ef;fontColor=#ffffff;" parent="538" vertex="1">
                    <mxGeometry x="1242" y="294.66999999999996" width="54" height="34.67" as="geometry"/>
                </mxCell>
                <mxCell id="EFosTwjenpsRDveEK6V9-731" value="" style="strokeWidth=1;shadow=0;dashed=0;align=center;html=1;shape=mxgraph.mockup.graphics.rrect;rSize=0;strokeColor=#001DBC;fillColor=#0050ef;fontColor=#ffffff;" parent="538" vertex="1">
                    <mxGeometry x="1296" y="294.66999999999996" width="54" height="34.67" as="geometry"/>
                </mxCell>
                <mxCell id="EFosTwjenpsRDveEK6V9-732" value="" style="strokeWidth=1;shadow=0;dashed=0;align=center;html=1;shape=mxgraph.mockup.graphics.rrect;rSize=0;strokeColor=#001DBC;fillColor=#0050ef;fontColor=#ffffff;" parent="538" vertex="1">
                    <mxGeometry x="1350" y="294.66999999999996" width="54" height="34.67" as="geometry"/>
                </mxCell>
                <mxCell id="EFosTwjenpsRDveEK6V9-734" value="" style="strokeWidth=1;shadow=0;dashed=0;align=center;html=1;shape=mxgraph.mockup.graphics.rrect;rSize=0;strokeColor=#001DBC;fillColor=#0050ef;fontColor=#ffffff;" parent="538" vertex="1">
                    <mxGeometry x="1620" y="294.66" width="540" height="34.67" as="geometry"/>
                </mxCell>
                <mxCell id="EFosTwjenpsRDveEK6V9-736" value="" style="strokeWidth=1;shadow=0;dashed=0;align=center;html=1;shape=mxgraph.mockup.graphics.rrect;rSize=0;strokeColor=#001DBC;fillColor=#0050ef;fontColor=#ffffff;" parent="538" vertex="1">
                    <mxGeometry x="2376" y="294.66" width="540" height="34.67" as="geometry"/>
                </mxCell>
                <mxCell id="EFosTwjenpsRDveEK6V9-737" value="" style="strokeWidth=1;shadow=0;dashed=0;align=center;html=1;shape=mxgraph.mockup.graphics.rrect;rSize=0;strokeColor=#001DBC;fillColor=#0050ef;fontColor=#ffffff;" parent="538" vertex="1">
                    <mxGeometry x="3130" y="294.68" width="54" height="34.67" as="geometry"/>
                </mxCell>
                <mxCell id="EFosTwjenpsRDveEK6V9-738" value="" style="strokeWidth=1;shadow=0;dashed=0;align=center;html=1;shape=mxgraph.mockup.graphics.rrect;rSize=0;strokeColor=#001DBC;fillColor=#0050ef;fontColor=#ffffff;" parent="538" vertex="1">
                    <mxGeometry x="3294" y="294.68" width="16" height="34.67" as="geometry"/>
                </mxCell>
                <mxCell id="EFosTwjenpsRDveEK6V9-739" value="" style="strokeWidth=1;shadow=0;dashed=0;align=center;html=1;shape=mxgraph.mockup.graphics.rrect;rSize=0;strokeColor=#001DBC;fillColor=#0050ef;fontColor=#ffffff;" parent="538" vertex="1">
                    <mxGeometry x="3184" y="294.65999999999997" width="54" height="34.67" as="geometry"/>
                </mxCell>
                <mxCell id="EFosTwjenpsRDveEK6V9-740" value="" style="strokeWidth=1;shadow=0;dashed=0;align=center;html=1;shape=mxgraph.mockup.graphics.rrect;rSize=0;strokeColor=#001DBC;fillColor=#0050ef;fontColor=#ffffff;" parent="538" vertex="1">
                    <mxGeometry x="3238" y="294.67" width="56" height="34.67" as="geometry"/>
                </mxCell>
                <mxCell id="LFOwhIeCNmRtc4PxrrOn-733" value="&lt;span style=&quot;color: rgba(0, 0, 0, 0); font-family: monospace; font-size: 0px; text-align: start;&quot;&gt;%3CmxGraphModel%3E%3Croot%3E%3CmxCell%20id%3D%220%22%2F%3E%3CmxCell%20id%3D%221%22%20parent%3D%220%22%2F%3E%3CmxCell%20id%3D%222%22%20value%3D%22%22%20style%3D%22strokeWidth%3D1%3Bshadow%3D0%3Bdashed%3D0%3Balign%3Dcenter%3Bhtml%3D1%3Bshape%3Dmxgraph.mockup.graphics.rrect%3BrSize%3D0%3BstrokeColor%3D%23999999%3BfillColor%3D%23AADDFF%3BfontColor%3D%23ffffff%3B%22%20vertex%3D%221%22%20parent%3D%221%22%3E%3CmxGeometry%20x%3D%221320%22%20y%3D%22104.68%22%20width%3D%2226%22%20height%3D%2234.67%22%20as%3D%22geometry%22%2F%3E%3C%2FmxCell%3E%3C%2Froot%3E%3C%2FmxGraphModel%3E&lt;/span&gt;" style="strokeWidth=1;shadow=0;dashed=0;align=center;html=1;shape=mxgraph.mockup.graphics.rrect;rSize=0;strokeColor=#001DBC;fillColor=#0050ef;fontColor=#ffffff;gradientColor=default;" parent="538" vertex="1">
                    <mxGeometry x="904" y="363.68" width="338" height="35.32" as="geometry"/>
                </mxCell>
                <mxCell id="LFOwhIeCNmRtc4PxrrOn-736" value="&lt;span style=&quot;color: rgba(0, 0, 0, 0); font-family: monospace; font-size: 0px; text-align: start;&quot;&gt;%3CmxGraphModel%3E%3Croot%3E%3CmxCell%20id%3D%220%22%2F%3E%3CmxCell%20id%3D%221%22%20parent%3D%220%22%2F%3E%3CmxCell%20id%3D%222%22%20value%3D%22%22%20style%3D%22strokeWidth%3D1%3Bshadow%3D0%3Bdashed%3D0%3Balign%3Dcenter%3Bhtml%3D1%3Bshape%3Dmxgraph.mockup.graphics.rrect%3BrSize%3D0%3BstrokeColor%3D%23999999%3BfillColor%3D%23AADDFF%3BfontColor%3D%23ffffff%3B%22%20vertex%3D%221%22%20parent%3D%221%22%3E%3CmxGeometry%20x%3D%221320%22%20y%3D%22104.68%22%20width%3D%2226%22%20height%3D%2234.67%22%20as%3D%22geometry%22%2F%3E%3C%2FmxCell%3E%3C%2Froot%3E%3C%2FmxGraphModel%3E&lt;/span&gt;" style="strokeWidth=1;shadow=0;dashed=0;align=center;html=1;shape=mxgraph.mockup.graphics.rrect;rSize=0;strokeColor=#001DBC;fillColor=#0050ef;fontColor=#ffffff;gradientColor=default;" parent="538" vertex="1">
                    <mxGeometry x="1242" y="507.01" width="168" height="35.32" as="geometry"/>
                </mxCell>
                <mxCell id="LFOwhIeCNmRtc4PxrrOn-737" value="&lt;span style=&quot;color: rgba(0, 0, 0, 0); font-family: monospace; font-size: 0px; text-align: start;&quot;&gt;%3CmxGraphModel%3E%3Croot%3E%3CmxCell%20id%3D%220%22%2F%3E%3CmxCell%20id%3D%221%22%20parent%3D%220%22%2F%3E%3CmxCell%20id%3D%222%22%20value%3D%22%22%20style%3D%22strokeWidth%3D1%3Bshadow%3D0%3Bdashed%3D0%3Balign%3Dcenter%3Bhtml%3D1%3Bshape%3Dmxgraph.mockup.graphics.rrect%3BrSize%3D0%3BstrokeColor%3D%23999999%3BfillColor%3D%23AADDFF%3BfontColor%3D%23ffffff%3B%22%20vertex%3D%221%22%20parent%3D%221%22%3E%3CmxGeometry%20x%3D%221320%22%20y%3D%22104.68%22%20width%3D%2226%22%20height%3D%2234.67%22%20as%3D%22geometry%22%2F%3E%3C%2FmxCell%3E%3C%2Froot%3E%3C%2FmxGraphModel%3E&lt;/span&gt;" style="strokeWidth=1;shadow=0;dashed=0;align=center;html=1;shape=mxgraph.mockup.graphics.rrect;rSize=0;strokeColor=#001DBC;fillColor=#0050ef;fontColor=#ffffff;gradientColor=default;" parent="538" vertex="1">
                    <mxGeometry x="1242" y="437.68" width="168" height="35.32" as="geometry"/>
                </mxCell>
                <mxCell id="LFOwhIeCNmRtc4PxrrOn-881" value="" style="strokeWidth=1;shadow=0;dashed=0;align=center;html=1;shape=mxgraph.mockup.graphics.rrect;rSize=0;strokeColor=#001DBC;fillColor=#0050ef;fontColor=#ffffff;gradientColor=default;" parent="538" vertex="1">
                    <mxGeometry x="1620" y="438.01" width="76" height="34.67" as="geometry"/>
                </mxCell>
                <mxCell id="LFOwhIeCNmRtc4PxrrOn-884" value="" style="strokeWidth=1;shadow=0;dashed=0;align=center;html=1;shape=mxgraph.mockup.graphics.rrect;rSize=0;strokeColor=#001DBC;fillColor=#0050ef;fontColor=#ffffff;gradientColor=default;" parent="538" vertex="1">
                    <mxGeometry x="1620" y="507.33" width="46" height="34.67" as="geometry"/>
                </mxCell>
                <mxCell id="LFOwhIeCNmRtc4PxrrOn-886" value="" style="strokeWidth=1;shadow=0;dashed=0;align=center;html=1;shape=mxgraph.mockup.graphics.rrect;rSize=0;strokeColor=#001DBC;fillColor=#0050ef;fontColor=#ffffff;gradientColor=default;" parent="538" vertex="1">
                    <mxGeometry x="1696" y="571.99" width="464" height="34.67" as="geometry"/>
                </mxCell>
                <mxCell id="LFOwhIeCNmRtc4PxrrOn-1033" value="" style="strokeWidth=1;shadow=0;dashed=0;align=center;html=1;shape=mxgraph.mockup.graphics.rrect;rSize=0;strokeColor=#001DBC;fillColor=#0050ef;fontColor=#ffffff;gradientColor=default;" parent="538" vertex="1">
                    <mxGeometry x="2370" y="571.99" width="544" height="34.67" as="geometry"/>
                </mxCell>
                <mxCell id="LFOwhIeCNmRtc4PxrrOn-1034" value="" style="strokeWidth=1;shadow=0;dashed=0;align=center;html=1;shape=mxgraph.mockup.graphics.rrect;rSize=0;strokeColor=#001DBC;fillColor=#0050ef;fontColor=#ffffff;gradientColor=default;" parent="538" vertex="1">
                    <mxGeometry x="3130" y="572.01" width="54" height="34.67" as="geometry"/>
                </mxCell>
                <mxCell id="LFOwhIeCNmRtc4PxrrOn-1035" value="" style="strokeWidth=1;shadow=0;dashed=0;align=center;html=1;shape=mxgraph.mockup.graphics.rrect;rSize=0;strokeColor=#001DBC;fillColor=#0050ef;fontColor=#ffffff;gradientColor=default;" parent="538" vertex="1">
                    <mxGeometry x="3294" y="572.01" width="16" height="34.67" as="geometry"/>
                </mxCell>
                <mxCell id="LFOwhIeCNmRtc4PxrrOn-1036" value="" style="strokeWidth=1;shadow=0;dashed=0;align=center;html=1;shape=mxgraph.mockup.graphics.rrect;rSize=0;strokeColor=#001DBC;fillColor=#0050ef;fontColor=#ffffff;gradientColor=default;" parent="538" vertex="1">
                    <mxGeometry x="3184" y="571.99" width="54" height="34.67" as="geometry"/>
                </mxCell>
                <mxCell id="LFOwhIeCNmRtc4PxrrOn-1037" value="" style="strokeWidth=1;shadow=0;dashed=0;align=center;html=1;shape=mxgraph.mockup.graphics.rrect;rSize=0;strokeColor=#001DBC;fillColor=#0050ef;fontColor=#ffffff;gradientColor=default;" parent="538" vertex="1">
                    <mxGeometry x="3238" y="572" width="56" height="34.67" as="geometry"/>
                </mxCell>
                <mxCell id="LFOwhIeCNmRtc4PxrrOn-1038" value="" style="strokeWidth=1;shadow=0;dashed=0;align=center;html=1;shape=mxgraph.mockup.graphics.rrect;rSize=0;strokeColor=#3700CC;fillColor=#6a00ff;fontColor=#ffffff;direction=west;" parent="538" vertex="1">
                    <mxGeometry x="3529" y="641.33" width="6" height="34.67" as="geometry"/>
                </mxCell>
                <mxCell id="LFOwhIeCNmRtc4PxrrOn-1043" value="" style="strokeWidth=1;shadow=0;dashed=0;align=center;html=1;shape=mxgraph.mockup.graphics.rrect;rSize=0;strokeColor=#3700CC;fillColor=#6a00ff;fontColor=#ffffff;" parent="538" vertex="1">
                    <mxGeometry x="3310" y="641.33" width="219" height="34.67" as="geometry"/>
                </mxCell>
                <mxCell id="LFOwhIeCNmRtc4PxrrOn-1045" value="&lt;span style=&quot;color: rgba(0, 0, 0, 0); font-family: monospace; font-size: 0px; text-align: start;&quot;&gt;%3CmxGraphModel%3E%3Croot%3E%3CmxCell%20id%3D%220%22%2F%3E%3CmxCell%20id%3D%221%22%20parent%3D%220%22%2F%3E%3CmxCell%20id%3D%222%22%20value%3D%22%22%20style%3D%22strokeWidth%3D1%3Bshadow%3D0%3Bdashed%3D0%3Balign%3Dcenter%3Bhtml%3D1%3Bshape%3Dmxgraph.mockup.graphics.rrect%3BrSize%3D0%3BstrokeColor%3D%23999999%3BfillColor%3D%23AADDFF%3BfontColor%3D%23ffffff%3B%22%20vertex%3D%221%22%20parent%3D%221%22%3E%3CmxGeometry%20x%3D%221320%22%20y%3D%22104.68%22%20width%3D%2226%22%20height%3D%2234.67%22%20as%3D%22geometry%22%2F%3E%3C%2FmxCell%3E%3C%2Froot%3E%3C%2FmxGraphModel%3E&lt;/span&gt;" style="strokeWidth=1;shadow=0;dashed=0;align=center;html=1;shape=mxgraph.mockup.graphics.rrect;rSize=0;strokeColor=#3700CC;fillColor=#6a00ff;fontColor=#ffffff;gradientColor=default;" parent="538" vertex="1">
                    <mxGeometry x="3306" y="854.0100000000001" width="86" height="34.67" as="geometry"/>
                </mxCell>
                <mxCell id="LFOwhIeCNmRtc4PxrrOn-1058" value="" style="strokeWidth=1;shadow=0;dashed=0;align=center;html=1;shape=mxgraph.mockup.graphics.rrect;rSize=0;strokeColor=#999999;fillColor=#AADDFF;fontColor=#ffffff;" parent="538" vertex="1">
                    <mxGeometry x="3310" y="1408.68" width="136" height="34.67" as="geometry"/>
                </mxCell>
                <mxCell id="LFOwhIeCNmRtc4PxrrOn-1060" value="" style="strokeWidth=1;shadow=0;dashed=0;align=center;html=1;shape=mxgraph.mockup.graphics.rrect;rSize=0;strokeColor=#3700CC;fillColor=#6a00ff;fontColor=#ffffff;gradientColor=default;" parent="538" vertex="1">
                    <mxGeometry x="3310" y="715.34" width="136" height="34.67" as="geometry"/>
                </mxCell>
                <mxCell id="LFOwhIeCNmRtc4PxrrOn-1061" value="" style="strokeWidth=1;shadow=0;dashed=0;align=center;html=1;shape=mxgraph.mockup.graphics.rrect;rSize=0;strokeColor=#3700CC;fillColor=#6a00ff;fontColor=#ffffff;gradientColor=default;" parent="538" vertex="1">
                    <mxGeometry x="3446" y="715.34" width="136" height="34.67" as="geometry"/>
                </mxCell>
                <mxCell id="LFOwhIeCNmRtc4PxrrOn-1063" value="&lt;span style=&quot;color: rgba(0, 0, 0, 0); font-family: monospace; font-size: 0px; text-align: start;&quot;&gt;%3CmxGraphModel%3E%3Croot%3E%3CmxCell%20id%3D%220%22%2F%3E%3CmxCell%20id%3D%221%22%20parent%3D%220%22%2F%3E%3CmxCell%20id%3D%222%22%20value%3D%22%22%20style%3D%22strokeWidth%3D1%3Bshadow%3D0%3Bdashed%3D0%3Balign%3Dcenter%3Bhtml%3D1%3Bshape%3Dmxgraph.mockup.graphics.rrect%3BrSize%3D0%3BstrokeColor%3D%23999999%3BfillColor%3D%23AADDFF%3BfontColor%3D%23ffffff%3B%22%20vertex%3D%221%22%20parent%3D%221%22%3E%3CmxGeometry%20x%3D%221320%22%20y%3D%22104.68%22%20width%3D%2226%22%20height%3D%2234.67%22%20as%3D%22geometry%22%2F%3E%3C%2FmxCell%3E%3C%2Froot%3E%3C%2FmxGraphModel%3E&lt;/span&gt;" style="strokeWidth=1;shadow=0;dashed=0;align=center;html=1;shape=mxgraph.mockup.graphics.rrect;rSize=0;strokeColor=#3700CC;fillColor=#6a00ff;fontColor=#ffffff;gradientColor=default;" parent="538" vertex="1">
                    <mxGeometry x="3582" y="784.67" width="68" height="34.67" as="geometry"/>
                </mxCell>
                <mxCell id="LFOwhIeCNmRtc4PxrrOn-1066" value="" style="strokeWidth=1;shadow=0;dashed=0;align=center;html=1;shape=mxgraph.mockup.graphics.rrect;rSize=0;strokeColor=#005700;fillColor=#008a00;fontColor=#ffffff;" parent="538" vertex="1">
                    <mxGeometry x="3657" y="923.34" width="16" height="34.67" as="geometry"/>
                </mxCell>
                <mxCell id="LFOwhIeCNmRtc4PxrrOn-1067" value="&lt;span style=&quot;color: rgba(0, 0, 0, 0); font-family: monospace; font-size: 0px; text-align: start;&quot;&gt;%3CmxGraphModel%3E%3Croot%3E%3CmxCell%20id%3D%220%22%2F%3E%3CmxCell%20id%3D%221%22%20parent%3D%220%22%2F%3E%3CmxCell%20id%3D%222%22%20value%3D%22%22%20style%3D%22strokeWidth%3D1%3Bshadow%3D0%3Bdashed%3D0%3Balign%3Dcenter%3Bhtml%3D1%3Bshape%3Dmxgraph.mockup.graphics.rrect%3BrSize%3D0%3BstrokeColor%3D%23999999%3BfillColor%3D%23AADDFF%3BfontColor%3D%23ffffff%3B%22%20vertex%3D%221%22%20parent%3D%221%22%3E%3CmxGeometry%20x%3D%221320%22%20y%3D%22104.68%22%20width%3D%2226%22%20height%3D%2234.67%22%20as%3D%22geometry%22%2F%3E%3C%2FmxCell%3E%3C%2Froot%3E%3C%2FmxGraphModel%3E&lt;/span&gt;" style="strokeWidth=1;shadow=0;dashed=0;align=center;html=1;shape=mxgraph.mockup.graphics.rrect;rSize=0;strokeColor=#005700;fillColor=#008a00;fontColor=#ffffff;gradientColor=default;" parent="538" vertex="1">
                    <mxGeometry x="3657" y="993.67" width="13" height="34.67" as="geometry"/>
                </mxCell>
                <mxCell id="LFOwhIeCNmRtc4PxrrOn-1068" value="" style="strokeWidth=1;shadow=0;dashed=0;align=center;html=1;shape=mxgraph.mockup.graphics.rrect;rSize=0;strokeColor=#005700;fillColor=#008a00;fontColor=#ffffff;gradientColor=default;" parent="538" vertex="1">
                    <mxGeometry x="3927" y="1062" width="26" height="34.67" as="geometry"/>
                </mxCell>
                <mxCell id="LFOwhIeCNmRtc4PxrrOn-1070" value="" style="strokeWidth=1;shadow=0;dashed=0;align=center;html=1;shape=mxgraph.mockup.graphics.rrect;rSize=0;strokeColor=#005700;fillColor=#008a00;fontColor=#ffffff;direction=west;" parent="538" vertex="1">
                    <mxGeometry x="3982" y="923.3399999999999" width="6" height="34.67" as="geometry"/>
                </mxCell>
                <mxCell id="LFOwhIeCNmRtc4PxrrOn-1071" value="&lt;span style=&quot;color: rgba(0, 0, 0, 0); font-family: monospace; font-size: 0px; text-align: start;&quot;&gt;%3CmxGraphModel%3E%3Croot%3E%3CmxCell%20id%3D%220%22%2F%3E%3CmxCell%20id%3D%221%22%20parent%3D%220%22%2F%3E%3CmxCell%20id%3D%222%22%20value%3D%22%22%20style%3D%22strokeWidth%3D1%3Bshadow%3D0%3Bdashed%3D0%3Balign%3Dcenter%3Bhtml%3D1%3Bshape%3Dmxgraph.mockup.graphics.rrect%3BrSize%3D0%3BstrokeColor%3D%23999999%3BfillColor%3D%23AADDFF%3BfontColor%3D%23ffffff%3B%22%20vertex%3D%221%22%20parent%3D%221%22%3E%3CmxGeometry%20x%3D%221320%22%20y%3D%22104.68%22%20width%3D%2226%22%20height%3D%2234.67%22%20as%3D%22geometry%22%2F%3E%3C%2FmxCell%3E%3C%2Froot%3E%3C%2FmxGraphModel%3E&lt;/span&gt;" style="strokeWidth=1;shadow=0;dashed=0;align=center;html=1;shape=mxgraph.mockup.graphics.rrect;rSize=0;strokeColor=#005700;fillColor=#008a00;fontColor=#ffffff;" parent="538" vertex="1">
                    <mxGeometry x="3886" y="923.34" width="96" height="34.67" as="geometry"/>
                </mxCell>
                <mxCell id="LFOwhIeCNmRtc4PxrrOn-1072" value="&lt;span style=&quot;color: rgba(0, 0, 0, 0); font-family: monospace; font-size: 0px; text-align: start;&quot;&gt;%3CmxGraphModel%3E%3Croot%3E%3CmxCell%20id%3D%220%22%2F%3E%3CmxCell%20id%3D%221%22%20parent%3D%220%22%2F%3E%3CmxCell%20id%3D%222%22%20value%3D%22%22%20style%3D%22strokeWidth%3D1%3Bshadow%3D0%3Bdashed%3D0%3Balign%3Dcenter%3Bhtml%3D1%3Bshape%3Dmxgraph.mockup.graphics.rrect%3BrSize%3D0%3BstrokeColor%3D%23999999%3BfillColor%3D%23AADDFF%3BfontColor%3D%23ffffff%3B%22%20vertex%3D%221%22%20parent%3D%221%22%3E%3CmxGeometry%20x%3D%221320%22%20y%3D%22104.68%22%20width%3D%2226%22%20height%3D%2234.67%22%20as%3D%22geometry%22%2F%3E%3C%2FmxCell%3E%3C%2Froot%3E%3C%2FmxGraphModel%3E&lt;/span&gt;" style="strokeWidth=1;shadow=0;dashed=0;align=center;html=1;shape=mxgraph.mockup.graphics.rrect;rSize=0;strokeColor=#005700;fillColor=#008a00;fontColor=#ffffff;gradientColor=default;" parent="538" vertex="1">
                    <mxGeometry x="3886" y="992.6700000000001" width="41" height="34.67" as="geometry"/>
                </mxCell>
                <mxCell id="LFOwhIeCNmRtc4PxrrOn-1075" value="" style="strokeWidth=1;shadow=0;dashed=0;align=center;html=1;shape=mxgraph.mockup.graphics.rrect;rSize=0;strokeColor=#005700;fillColor=#008a00;fontColor=#ffffff;gradientColor=default;" parent="538" vertex="1">
                    <mxGeometry x="3953" y="1131.34" width="66" height="34.67" as="geometry"/>
                </mxCell>
                <mxCell id="LFOwhIeCNmRtc4PxrrOn-1076" value="" style="strokeWidth=1;shadow=0;dashed=0;align=center;html=1;shape=mxgraph.mockup.graphics.rrect;rSize=0;strokeColor=#999999;fillColor=#AADDFF;fontColor=#ffffff;" parent="538" vertex="1">
                    <mxGeometry x="3952" y="1408.6799999999998" width="66" height="34.67" as="geometry"/>
                </mxCell>
                <mxCell id="LFOwhIeCNmRtc4PxrrOn-1078" value="" style="strokeWidth=1;shadow=0;dashed=0;align=center;html=1;shape=mxgraph.mockup.graphics.rrect;rSize=0;strokeColor=#006EAF;fillColor=#1ba1e2;fontColor=#ffffff;" parent="538" vertex="1">
                    <mxGeometry x="4019" y="1203.33" width="40" height="34.67" as="geometry"/>
                </mxCell>
                <mxCell id="LFOwhIeCNmRtc4PxrrOn-1079" value="" style="strokeWidth=1;shadow=0;dashed=0;align=center;html=1;shape=mxgraph.mockup.graphics.rrect;rSize=0;strokeColor=#006EAF;fillColor=#1ba1e2;fontColor=#ffffff;gradientColor=default;" parent="538" vertex="1">
                    <mxGeometry x="4018" y="1270.01" width="40" height="34.67" as="geometry"/>
                </mxCell>
                <mxCell id="LFOwhIeCNmRtc4PxrrOn-1080" value="" style="strokeWidth=1;shadow=0;dashed=0;align=center;html=1;shape=mxgraph.mockup.graphics.rrect;rSize=0;strokeColor=#999999;fillColor=#AADDFF;fontColor=#ffffff;" parent="538" vertex="1">
                    <mxGeometry x="4059" y="1411.33" width="66" height="34.67" as="geometry"/>
                </mxCell>
                <mxCell id="LFOwhIeCNmRtc4PxrrOn-1081" value="" style="strokeWidth=1;shadow=0;dashed=0;align=center;html=1;shape=mxgraph.mockup.graphics.rrect;rSize=0;strokeColor=#999999;fillColor=#AADDFF;fontColor=#ffffff;" parent="538" vertex="1">
                    <mxGeometry x="4059" y="1339.34" width="66" height="34.67" as="geometry"/>
                </mxCell>
                <mxCell id="LFOwhIeCNmRtc4PxrrOn-1082" value="" style="strokeWidth=1;shadow=0;dashed=0;align=center;html=1;shape=mxgraph.mockup.graphics.rrect;rSize=0;strokeColor=#999999;fillColor=#AADDFF;fontColor=#ffffff;" parent="538" vertex="1">
                    <mxGeometry x="4125" y="1339.34" width="66" height="34.67" as="geometry"/>
                </mxCell>
                <mxCell id="LFOwhIeCNmRtc4PxrrOn-1083" value="" style="strokeWidth=1;shadow=0;dashed=0;align=center;html=1;shape=mxgraph.mockup.graphics.rrect;rSize=0;strokeColor=#999999;fillColor=#AADDFF;fontColor=#ffffff;" parent="538" vertex="1">
                    <mxGeometry x="4191" y="1339.34" width="29" height="34.67" as="geometry"/>
                </mxCell>
                <mxCell id="685" value="S" style="strokeColor=inherit;fillColor=inherit;gradientColor=inherit;strokeWidth=1;shadow=0;dashed=0;align=center;html=1;shape=mxgraph.mockup.graphics.rrect;rSize=0;fontColor=#666666;" parent="1" vertex="1">
                    <mxGeometry x="2400" y="69.33333333333331" width="107.99999999999999" height="69.33333333333331" as="geometry"/>
                </mxCell>
                <mxCell id="686" value="S" style="strokeColor=inherit;fillColor=inherit;gradientColor=inherit;strokeWidth=1;shadow=0;dashed=0;align=center;html=1;shape=mxgraph.mockup.graphics.rrect;rSize=0;fontColor=#666666;" parent="1" vertex="1">
                    <mxGeometry x="2508" y="69.33333333333331" width="107.99999999999999" height="69.33333333333331" as="geometry"/>
                </mxCell>
                <mxCell id="699" value="week3" style="strokeColor=inherit;fillColor=inherit;gradientColor=inherit;strokeWidth=1;shadow=0;dashed=0;align=center;html=1;shape=mxgraph.mockup.graphics.rrect;rSize=0;fontColor=#666666;" parent="1" vertex="1">
                    <mxGeometry x="2616" width="754" height="69.33" as="geometry"/>
                </mxCell>
                <mxCell id="700" value="M" style="strokeColor=inherit;fillColor=inherit;gradientColor=inherit;strokeWidth=1;shadow=0;dashed=0;align=center;html=1;shape=mxgraph.mockup.graphics.rrect;rSize=0;fontColor=#666666;" parent="1" vertex="1">
                    <mxGeometry x="2616" y="69.33333333333331" width="107.99999999999999" height="69.33333333333331" as="geometry"/>
                </mxCell>
                <mxCell id="701" value="T" style="strokeColor=inherit;fillColor=inherit;gradientColor=inherit;strokeWidth=1;shadow=0;dashed=0;align=center;html=1;shape=mxgraph.mockup.graphics.rrect;rSize=0;fontColor=#666666;" parent="1" vertex="1">
                    <mxGeometry x="2724" y="69.33333333333331" width="107.99999999999999" height="69.33333333333331" as="geometry"/>
                </mxCell>
                <mxCell id="702" value="W" style="strokeColor=inherit;fillColor=inherit;gradientColor=inherit;strokeWidth=1;shadow=0;dashed=0;align=center;html=1;shape=mxgraph.mockup.graphics.rrect;rSize=0;fontColor=#666666;" parent="1" vertex="1">
                    <mxGeometry x="2831.9999999999995" y="69.33333333333331" width="107.99999999999999" height="69.33333333333331" as="geometry"/>
                </mxCell>
                <mxCell id="703" value="T" style="strokeColor=inherit;fillColor=inherit;gradientColor=inherit;strokeWidth=1;shadow=0;dashed=0;align=center;html=1;shape=mxgraph.mockup.graphics.rrect;rSize=0;fontColor=#666666;" parent="1" vertex="1">
                    <mxGeometry x="2940" y="69.33333333333331" width="107.99999999999999" height="69.33333333333331" as="geometry"/>
                </mxCell>
                <mxCell id="704" value="F" style="strokeColor=inherit;fillColor=inherit;gradientColor=inherit;strokeWidth=1;shadow=0;dashed=0;align=center;html=1;shape=mxgraph.mockup.graphics.rrect;rSize=0;fontColor=#666666;" parent="1" vertex="1">
                    <mxGeometry x="3048" y="69.33333333333331" width="107.99999999999999" height="69.33333333333331" as="geometry"/>
                </mxCell>
                <mxCell id="707" value="S" style="strokeColor=inherit;fillColor=inherit;gradientColor=inherit;strokeWidth=1;shadow=0;dashed=0;align=center;html=1;shape=mxgraph.mockup.graphics.rrect;rSize=0;fontColor=#666666;" parent="1" vertex="1">
                    <mxGeometry x="3156" y="69.33333333333331" width="107.99999999999999" height="69.33333333333331" as="geometry"/>
                </mxCell>
                <mxCell id="708" value="S" style="strokeColor=inherit;fillColor=inherit;gradientColor=inherit;strokeWidth=1;shadow=0;dashed=0;align=center;html=1;shape=mxgraph.mockup.graphics.rrect;rSize=0;fontColor=#666666;" parent="1" vertex="1">
                    <mxGeometry x="3264" y="69.33" width="106" height="69.33" as="geometry"/>
                </mxCell>
                <mxCell id="jfYItdnhFlpZmDzV3BWn-854" value="Week4" style="strokeColor=inherit;fillColor=inherit;gradientColor=inherit;strokeWidth=1;shadow=0;dashed=0;align=center;html=1;shape=mxgraph.mockup.graphics.rrect;rSize=0;fontColor=#666666;" parent="1" vertex="1">
                    <mxGeometry x="3370" y="-0.33" width="754" height="69.33" as="geometry"/>
                </mxCell>
                <mxCell id="jfYItdnhFlpZmDzV3BWn-855" value="M" style="strokeColor=inherit;fillColor=inherit;gradientColor=inherit;strokeWidth=1;shadow=0;dashed=0;align=center;html=1;shape=mxgraph.mockup.graphics.rrect;rSize=0;fontColor=#666666;" parent="1" vertex="1">
                    <mxGeometry x="3370" y="69.00333333333332" width="107.99999999999999" height="69.33333333333331" as="geometry"/>
                </mxCell>
                <mxCell id="jfYItdnhFlpZmDzV3BWn-856" value="T" style="strokeColor=inherit;fillColor=inherit;gradientColor=inherit;strokeWidth=1;shadow=0;dashed=0;align=center;html=1;shape=mxgraph.mockup.graphics.rrect;rSize=0;fontColor=#666666;" parent="1" vertex="1">
                    <mxGeometry x="3478" y="69.00333333333332" width="107.99999999999999" height="69.33333333333331" as="geometry"/>
                </mxCell>
                <mxCell id="jfYItdnhFlpZmDzV3BWn-857" value="W" style="strokeColor=inherit;fillColor=inherit;gradientColor=inherit;strokeWidth=1;shadow=0;dashed=0;align=center;html=1;shape=mxgraph.mockup.graphics.rrect;rSize=0;fontColor=#666666;" parent="1" vertex="1">
                    <mxGeometry x="3585.9999999999995" y="69.00333333333332" width="107.99999999999999" height="69.33333333333331" as="geometry"/>
                </mxCell>
                <mxCell id="jfYItdnhFlpZmDzV3BWn-858" value="T" style="strokeColor=inherit;fillColor=inherit;gradientColor=inherit;strokeWidth=1;shadow=0;dashed=0;align=center;html=1;shape=mxgraph.mockup.graphics.rrect;rSize=0;fontColor=#666666;" parent="1" vertex="1">
                    <mxGeometry x="3694" y="69.00333333333332" width="107.99999999999999" height="69.33333333333331" as="geometry"/>
                </mxCell>
                <mxCell id="jfYItdnhFlpZmDzV3BWn-859" value="F" style="strokeColor=inherit;fillColor=inherit;gradientColor=inherit;strokeWidth=1;shadow=0;dashed=0;align=center;html=1;shape=mxgraph.mockup.graphics.rrect;rSize=0;fontColor=#666666;" parent="1" vertex="1">
                    <mxGeometry x="3802" y="69.00333333333332" width="107.99999999999999" height="69.33333333333331" as="geometry"/>
                </mxCell>
                <mxCell id="jfYItdnhFlpZmDzV3BWn-860" value="S" style="strokeColor=inherit;fillColor=inherit;gradientColor=inherit;strokeWidth=1;shadow=0;dashed=0;align=center;html=1;shape=mxgraph.mockup.graphics.rrect;rSize=0;fontColor=#666666;" parent="1" vertex="1">
                    <mxGeometry x="3910" y="69.00333333333332" width="107.99999999999999" height="69.33333333333331" as="geometry"/>
                </mxCell>
                <mxCell id="jfYItdnhFlpZmDzV3BWn-861" value="S" style="strokeColor=inherit;fillColor=inherit;gradientColor=inherit;strokeWidth=1;shadow=0;dashed=0;align=center;html=1;shape=mxgraph.mockup.graphics.rrect;rSize=0;fontColor=#666666;" parent="1" vertex="1">
                    <mxGeometry x="4018" y="69" width="106" height="69.33" as="geometry"/>
                </mxCell>
                <mxCell id="jfYItdnhFlpZmDzV3BWn-879" value="Week5" style="strokeColor=inherit;fillColor=inherit;gradientColor=inherit;strokeWidth=1;shadow=0;dashed=0;align=center;html=1;shape=mxgraph.mockup.graphics.rrect;rSize=0;fontColor=#666666;" parent="1" vertex="1">
                    <mxGeometry x="4124" width="754" height="69.33" as="geometry"/>
                </mxCell>
                <mxCell id="jfYItdnhFlpZmDzV3BWn-880" value="M" style="strokeColor=inherit;fillColor=inherit;gradientColor=inherit;strokeWidth=1;shadow=0;dashed=0;align=center;html=1;shape=mxgraph.mockup.graphics.rrect;rSize=0;fontColor=#666666;" parent="1" vertex="1">
                    <mxGeometry x="4124" y="69.33333333333331" width="107.99999999999999" height="69.33333333333331" as="geometry"/>
                </mxCell>
                <mxCell id="jfYItdnhFlpZmDzV3BWn-881" value="T" style="strokeColor=inherit;fillColor=inherit;gradientColor=inherit;strokeWidth=1;shadow=0;dashed=0;align=center;html=1;shape=mxgraph.mockup.graphics.rrect;rSize=0;fontColor=#666666;" parent="1" vertex="1">
                    <mxGeometry x="4232" y="69.33333333333331" width="107.99999999999999" height="69.33333333333331" as="geometry"/>
                </mxCell>
                <mxCell id="jfYItdnhFlpZmDzV3BWn-882" value="W" style="strokeColor=inherit;fillColor=inherit;gradientColor=inherit;strokeWidth=1;shadow=0;dashed=0;align=center;html=1;shape=mxgraph.mockup.graphics.rrect;rSize=0;fontColor=#666666;" parent="1" vertex="1">
                    <mxGeometry x="4340" y="69.33333333333331" width="107.99999999999999" height="69.33333333333331" as="geometry"/>
                </mxCell>
                <mxCell id="jfYItdnhFlpZmDzV3BWn-883" value="T" style="strokeColor=inherit;fillColor=inherit;gradientColor=inherit;strokeWidth=1;shadow=0;dashed=0;align=center;html=1;shape=mxgraph.mockup.graphics.rrect;rSize=0;fontColor=#666666;" parent="1" vertex="1">
                    <mxGeometry x="4448" y="69.33333333333331" width="107.99999999999999" height="69.33333333333331" as="geometry"/>
                </mxCell>
                <mxCell id="jfYItdnhFlpZmDzV3BWn-884" value="F" style="strokeColor=inherit;fillColor=inherit;gradientColor=inherit;strokeWidth=1;shadow=0;dashed=0;align=center;html=1;shape=mxgraph.mockup.graphics.rrect;rSize=0;fontColor=#666666;" parent="1" vertex="1">
                    <mxGeometry x="4556" y="69.33333333333331" width="107.99999999999999" height="69.33333333333331" as="geometry"/>
                </mxCell>
                <mxCell id="jfYItdnhFlpZmDzV3BWn-885" value="S" style="strokeColor=inherit;fillColor=inherit;gradientColor=inherit;strokeWidth=1;shadow=0;dashed=0;align=center;html=1;shape=mxgraph.mockup.graphics.rrect;rSize=0;fontColor=#666666;" parent="1" vertex="1">
                    <mxGeometry x="4664" y="69.33333333333331" width="107.99999999999999" height="69.33333333333331" as="geometry"/>
                </mxCell>
                <mxCell id="jfYItdnhFlpZmDzV3BWn-886" value="S" style="strokeColor=inherit;fillColor=inherit;gradientColor=inherit;strokeWidth=1;shadow=0;dashed=0;align=center;html=1;shape=mxgraph.mockup.graphics.rrect;rSize=0;fontColor=#666666;" parent="1" vertex="1">
                    <mxGeometry x="4772" y="69.33" width="106" height="69.33" as="geometry"/>
                </mxCell>
                <mxCell id="jfYItdnhFlpZmDzV3BWn-887" value="" style="strokeColor=inherit;fillColor=inherit;gradientColor=inherit;strokeWidth=1;shadow=0;dashed=0;align=center;html=1;shape=mxgraph.mockup.graphics.rrect;rSize=0;fontColor=#666666;" parent="1" vertex="1">
                    <mxGeometry x="4556" y="138.67" width="216" height="1911.33" as="geometry"/>
                </mxCell>
                <mxCell id="jfYItdnhFlpZmDzV3BWn-888" value="" style="strokeColor=inherit;fillColor=inherit;gradientColor=inherit;strokeWidth=1;shadow=0;dashed=0;align=center;html=1;shape=mxgraph.mockup.graphics.rrect;rSize=0;fontColor=#666666;" parent="1" vertex="1">
                    <mxGeometry x="4772" y="138.67" width="106" height="1911.33" as="geometry"/>
                </mxCell>
                <mxCell id="LFOwhIeCNmRtc4PxrrOn-1065" value="" style="strokeWidth=1;shadow=0;dashed=0;align=center;html=1;shape=mxgraph.mockup.graphics.rrect;rSize=0;strokeColor=#999999;fillColor=#AADDFF;fontColor=#ffffff;direction=west;" parent="1" vertex="1">
                    <mxGeometry x="2860" y="-80" width="6" height="34.67" as="geometry"/>
                </mxCell>
            </root>
        </mxGraphModel>
    </diagram>
</mxfile>
